<?xml version="1.0" encoding="UTF-8"?><svg xmlns="http://www.w3.org/2000/svg" viewBox="2836.47021484375 416.3174133300781 1865.0185546875 1962.382568359375"><defs><style>.cls-1{fill:#fff}svg{height:100%}g{visibility:hidden}svg.default g#default,svg.default g#default *,svg.flipped g#flipped,svg.flipped g#flipped *,svg.happyNewYear g#happyNewYear,svg.happyNewYear g#happyNewYear *,svg.saeHaeBok g#saeHaeBok,svg.saeHaeBok g#saeHaeBok *{visibility:visible}</style></defs><g id="default"><path d="M4701.47,864.7l-301-196c-71,128-187,131-262,77l-178-128c72-147-40-223-137-196,0,109-21,202-89,316l-478,805c-14-36-24-75-24-111,0-148,89-203,89-336,0-115-55-198-111-245-31-26-77-6-77,34v547h-6V884.7c0-40-47-60-77-34-57,47-111,130-111,245,0,123,89,188,89,336,0,28-19,67-33,91l-80,137c-19,33-11,71,22,94l165,113c63,43,70,128,19,186l-285,326h178c108-148,228-159,376-286,133-114,218-319,368-475,132-138,399-250,524-393,96-110,130-224,176-358l83,45c54,29,130,16,160-47Z"/></g><g id="saeHaeBok"><g><path d="M4701.47,864.7l-301-196c-71,128-187,131-262,77l-178-128c72-147-40-223-137-196,0,109-21,202-89,316l-478,805c-14-36-24-75-24-111,0-148,89-203,89-336,0-115-55-198-111-245-31-26-77-6-77,34v547h-6V884.7c0-40-47-60-77-34-57,47-111,130-111,245,0,123,89,188,89,336,0,28-19,67-33,91l-80,137c-19,33-11,71,22,94l165,113c63,43,70,128,19,186l-285,326h178c108-148,228-159,376-286,133-114,218-319,368-475,132-138,399-250,524-393,96-110,130-224,176-358l83,45c54,29,130,16,160-47Z"/><g><path class="cls-1" d="M4203.96,919.52l-67.94,1.12v-1.12c16.56-2.81,30.6-9.55,32.57-14.6,1.12-3.09-.56-6.74-5.33-8.14-4.77-1.4-13.76-.28-24.43,1.68v-.56c20.21-7.3,31.44-19.09,31.44-27.79,0-7.02-5.33-12.07-14.32-10.95-11.75,1.53-33.96,16.78-45.48,31.57v-41.12h-11.51v56.99h2.53c11.79-17.41,34.25-37.06,48.01-40.99,5.05-1.4,8.7,.56,8.7,4.77,.28,10.39-13.48,23.3-36.5,31.44l.56,3.09c13.48-3.93,23.3-5.05,29.76-3.93,4.21,.84,4.77,3.65,1.68,6.46-6.18,5.61-23.02,13.2-43.8,13.48l-32.85,.56v3.65l94.61-1.4v.28l-70.19,23.3,.84,3.09c11.23-4.21,30.6-7.58,42.39-6.18,8.98,1.12,17.13,4.77,16.84,11.79-.28,9.83-16.84,16.56-29.2,16.56l-.28,2.81c20.21,1.68,40.71-5.9,43.8-18.81,4.49-18.81-21.34-17.13-29.2-15.72l-.28-1.12,57.55-16.28v-3.93Z"/><rect class="cls-1" x="4177" y="849.61" width="11.51" height="56.99"/><path class="cls-1" d="M3927.7,851.85l-22.46,59.52-.84-.56v-61.2h-11.51v99.11h2.53l30.6-81.42c.28-.84,1.68-.84,1.68,.28l-.56,81.14c0,12.35-8.7,27.79-24.99,27.79-9.83,0-18.81-4.21-26.67-13.48l-.12,.08c2.92-3.05,5.48-6.94,7.42-11.87,7.86-19.93-.56-36.22-11.79-35.94-6.74,.28-14.6,4.77-21.62,17.69l8.42-83.38h-11.79l-10.11,96.02c-1.4,14.04-7.58,23.02-18.25,23.02-3.37,0-8.7-1.68-12.63-7.3l-1.97,.84c3.65,7.58,10.39,11.23,18.53,11.23,12.07,0,21.62-9.55,25.83-25.27,3.37-12.35,11.23-26.95,18.53-26.95,6.74,0,11.23,14.6,7.3,28.07-4.21,14.6-15.44,21.62-24.71,21.62v2.25c7.6,.39,17.62-1.39,25.49-8.7,8.4,11.04,19.81,16.56,30.94,16.56,22.18,0,35.09-13.48,35.09-35.66l.28-91.52c0-7.58-10.11-8.7-12.63-1.97Z"/><path class="cls-1" d="M4055.72,851.85l-22.46,59.52-.84-.56v-61.2h-11.51v99.11h2.53l30.6-81.42c.28-.84,1.68-.84,1.68,.28l-.56,81.14c0,12.35-8.7,27.79-24.99,27.79-9.4,0-18.03-3.87-25.64-12.31,5.21-6.67,8.51-15.96,8.51-26.15,0-19.93-9.83-29.48-19.93-29.48-6.74,0-12.07,4.21-15.16,8.7l1.97,1.4c3.37-3.93,7.02-6.46,12.35-5.61,7.86,1.12,9.55,13.2,9.55,24.99,0,14.6-2.81,32.85-16.28,32.85-12.63,0-16.56-18.25-16.56-32.85,0-30.6,24.14-46.04,47.73-47.45v-3.37h-32.13l7.71-11.23v-26.39h-11.23v37.62h-28.08v3.65l42.96-.28v1.12c-24.99,9.26-38.46,26.11-38.46,46.32s11.79,36.5,28.08,36.5c6.76,0,13.06-3.43,17.91-9.03,8.27,10.32,18.77,15.49,29.53,15.49,22.18,0,35.09-13.48,35.09-35.66l.28-91.52c0-7.58-10.11-8.7-12.63-1.97Z"/></g></g></g><g id="happyNewYear"><g><path d="M4701.47,864.7l-301-196c-71,128-187,131-262,77l-178-128c72-147-40-223-137-196,0,109-21,202-89,316l-478,805c-14-36-24-75-24-111,0-148,89-203,89-336,0-115-55-198-111-245-31-26-77-6-77,34v547h-6V884.7c0-40-47-60-77-34-57,47-111,130-111,245,0,123,89,188,89,336,0,28-19,67-33,91l-80,137c-19,33-11,71,22,94l165,113c63,43,70,128,19,186l-285,326h178c108-148,228-159,376-286,133-114,218-319,368-475,132-138,399-250,524-393,96-110,130-224,176-358l83,45c54,29,130,16,160-47Z"/><g><path class="cls-1" d="M3795.3,898.21v-2.25h9.01l2.25-2.25v-73.2l-2.25-2.25h-9.01v-2.25h88.96v2.25h-9.01l-2.25,2.25v73.2l2.25,2.25h9.01v2.25h-88.96Zm22.52-43.92h43.92v-33.78l-2.25-2.25h-39.41l-2.25,2.25v33.78Zm2.25,41.67h39.41l2.25-2.25v-37.16h-43.92v37.16l2.25,2.25Z"/><path class="cls-1" d="M3894.97,887.74c0-8.45,6.08-13.06,23.2-17.68l12.84-3.38v-9.01c0-10.14-4.5-15.77-11.82-15.77s-11.82,4.5-11.82,12.39v9.01l-10.13,4.5,.56-11.26c.56-10.81,8.9-16.89,21.62-16.89,13.63,0,21.73,6.53,21.73,18.02v36.04l2.25,2.25h6.76v2.25h-18.02v-10.13h-1.13c-4.5,8.11-9.68,11.26-18.69,11.26-10.25,0-17.34-3.38-17.34-11.6Zm36.04-10.92v-7.88c-18.69,4.28-25.34,9.12-25.34,18.47,0,7.54,3.38,9.68,9.23,9.68,8.78,0,16.1-8.67,16.1-20.27Z"/><path class="cls-1" d="M3954.65,926.37v-2.25h6.76l2.25-2.25v-75.45h-9.01v-2.25c5.63,0,12.39-1.69,18.02-4.5v9.01h1.13c3.15-5.63,10.7-9.01,18.69-9.01,15.54,0,26.35,12.27,26.35,29.84,0,16.22-12.05,29.84-27.7,29.84-5.86,0-11.37-1.91-15.54-5.18h-1.8v27.7l2.25,2.25h18.02v2.25h-39.41Zm52.93-56.53c0-15.43-6.87-26.69-17.34-26.69-9.8,0-16.44,6.64-16.44,16.89v17.91c0,11.82,6.19,18.02,15.99,18.02,11.04,0,17.79-11.94,17.79-26.13Z"/><path class="cls-1" d="M4026.72,926.37v-2.25h6.76l2.25-2.25v-75.45h-9.01v-2.25c5.63,0,12.39-1.69,18.02-4.5v9.01h1.13c3.15-5.63,10.7-9.01,18.69-9.01,15.54,0,26.35,12.27,26.35,29.84,0,16.22-12.05,29.84-27.7,29.84-5.86,0-11.37-1.91-15.54-5.18h-1.8v27.7l2.25,2.25h18.02v2.25h-39.41Zm52.93-56.53c0-15.43-6.87-26.69-17.34-26.69-9.8,0-16.44,6.64-16.44,16.89v17.91c0,11.82,6.19,18.02,15.99,18.02,11.04,0,17.79-11.94,17.79-26.13Z"/><path class="cls-1" d="M4161.86,841.91v2.25h-7.09l-28.49,69.82c-3.27,8-8.11,11.26-16.22,11.82l-7.88,.56,2.25-11.26h16.55c1.46,0,2.25-.79,2.82-2.25l3.15-7.66-24.77-61.03h-7.88v-2.25h67.57Zm-29.28,49.77l18.36-45.27-2.25-2.25h-32.43l-2.25,2.25,17.45,45.27h1.13Z"/><path class="cls-1" d="M3732.52,1004.07v-2.25h11.82l2.25-2.25v-73.2l-2.25-2.25h-11.82v-2.25h21.4l48.42,61.94h1.13v-57.43l-2.25-2.25h-19.14v-2.25h38.29v2.25h-11.82l-2.25,2.25v77.7h-3.94l-51.8-66.44h-1.13v61.93l2.25,2.25h19.14v2.25h-38.29Z"/><path class="cls-1" d="M3824.86,976.26c0-19.03,10.7-30.74,27.25-30.74,14.98,0,24.55,8.45,24.55,23.65l-3.38,3.38h-37.16c-.11,.79-.11,1.91-.11,2.25,0,13.96,7.21,27.03,19.93,27.03,10.58,0,17.34-9.8,19.48-24.1l2.36,.45c-2.14,15.65-9.57,27.03-24.66,27.03-18.13,0-28.26-11.49-28.26-28.94Zm38.29-5.97l2.25-2.25c0-11.37-5.18-20.27-12.95-20.27s-14.98,9.46-16.22,22.52h26.91Z"/><path class="cls-1" d="M3909.89,1004.07l-18.58-54.05h-6.76v-2.25h90.09v2.25h-6.76l-18.92,54.05h-5.86l-13.18-39.19h-1.13l-13.4,39.19h-5.52Zm6.08-13.18h1.13l13.85-40.88h-26.13l-2.25,2.25,13.4,38.62Zm33.67,0h1.13l13.63-38.62-2.25-2.25h-25.9l13.4,40.88Z"/><path class="cls-1" d="M3999.98,1004.07v-2.25h9.01l2.25-2.25v-28.15l-23.65-45.04-2.25-2.25h-9.01v-2.25h81.08v2.25h-8.67l-26.24,47.3v28.15l2.25,2.25h9.01v2.25h-33.78Zm20.61-37.16h1.13l22.86-40.54-2.25-2.25h-40.09l-2.25,2.25,20.61,40.54Z"/><path class="cls-1" d="M4051.22,976.26c0-19.03,10.7-30.74,27.25-30.74,14.98,0,24.55,8.45,24.55,23.65l-3.38,3.38h-37.16c-.11,.79-.11,1.91-.11,2.25,0,13.96,7.21,27.03,19.93,27.03,10.58,0,17.34-9.8,19.48-24.1l2.37,.45c-2.14,15.65-9.57,27.03-24.66,27.03-18.13,0-28.26-11.49-28.26-28.94Zm38.29-5.97l2.25-2.25c0-11.37-5.18-20.27-12.95-20.27s-14.98,9.46-16.22,22.52h26.91Z"/><path class="cls-1" d="M4115.41,993.6c0-8.45,6.08-13.06,23.2-17.68l12.84-3.38v-9.01c0-10.13-4.5-15.76-11.82-15.76s-11.82,4.5-11.82,12.39v9.01l-10.13,4.5,.56-11.26c.56-10.81,8.9-16.89,21.62-16.89,13.63,0,21.73,6.53,21.73,18.02v36.04l2.25,2.25h6.76v2.25h-18.02v-10.13h-1.13c-4.5,8.11-9.68,11.26-18.69,11.26-10.25,0-17.34-3.38-17.34-11.6Zm36.04-10.92v-7.88c-18.69,4.28-25.34,9.12-25.34,18.47,0,7.54,3.38,9.68,9.23,9.68,8.78,0,16.1-8.67,16.1-20.27Z"/><path class="cls-1" d="M4177.91,1004.07v-2.25h6.76l2.25-2.25v-47.3h-9.01v-2.25c5.63,0,12.39-1.69,18.02-4.5v18.02h1.13c3.04-9.35,7.21-16.89,16.89-17.45l9.01-.56-2.25,11.26h-9.01c-8.78,0-14.64,6.87-14.64,18.02v24.77l2.25,2.25h18.02v2.25h-39.41Z"/></g></g></g><g id="flipped"><g><g><path class="cls-1" d="M4524.74,2376.2c-63.92-87.17-133.59-127.75-207.33-170.71-53.06-30.91-107.93-62.88-168.31-114.68-69.77-59.8-126.33-144.81-186.21-234.82-54.3-81.61-110.44-166-181.62-240.02-63.53-66.42-159.88-127.89-253.07-187.33-101.3-64.63-206.06-131.45-270.85-205.58-88.4-101.29-124.01-205.91-165.24-327.05-3.38-9.93-6.8-19.97-10.28-30.12l-.96-2.79-85.6,46.41c-17.54,9.42-37.55,14.4-57.85,14.4-43.06,0-79.44-21.75-97.74-58.32l296.91-193.34c39.82,70.37,97.58,109.09,162.87,109.09,35.32,0,71.36-11.94,101.46-33.61l179.71-129.23-.93-1.9c-14.61-29.83-22.23-58.04-22.65-83.85-.38-23.25,5.05-44.04,16.12-61.79,20.36-32.65,58.49-52.14,102-52.14,12.38,0,24.74,1.61,36.78,4.8,.28,118.03,26.23,209.54,89.35,315.37l480.62,809.41,1.86-4.78c16.04-41.24,24.17-78.89,24.17-111.91,0-76.52-23.64-128.4-46.51-178.57-21.85-47.95-42.49-93.25-42.49-157.43,0-52.58,11.52-101.99,34.23-146.87,18.72-37,44.96-70.27,75.88-96.21,8.66-7.27,18.93-11.11,29.7-11.11,21.23,0,43.19,16.16,43.19,43.19v549.5h11V884.7c0-27.04,22.19-43.19,43.63-43.19,10.76,0,20.86,3.83,29.23,11.08,31.17,25.7,57.53,58.97,76.28,96.23,22.47,44.66,33.86,94.08,33.86,146.88,0,58.13-20.01,103.08-41.2,150.68-23.5,52.79-47.8,107.37-47.8,185.32,0,31.68,23.32,75.08,33.34,92.26l80,137c18.64,32.38,10.1,68.83-21.27,90.69l-164.98,112.99c-29.73,20.29-48.53,50.68-52.92,85.57-4.63,36.74,7.57,74.7,33.46,104.14l281.37,321.85h-171.23Z"/><path d="M3675.2,421.32c11.53,0,23.04,1.42,34.29,4.24,.26,57.11,6.37,106,19.16,153.57,14.14,52.56,37.21,105.27,70.53,161.13l478,805,5.24,8.82,3.72-9.56c16.15-41.53,24.34-79.49,24.34-112.81,0-77.06-23.76-129.19-46.73-179.61-21.74-47.7-42.27-92.75-42.27-156.39,0-52.18,11.43-101.22,33.96-145.74,18.57-36.7,44.6-69.7,75.25-95.43,8.21-6.88,17.92-10.52,28.09-10.52s20.83,4.06,28.33,11.13c7.97,7.52,12.36,18.02,12.36,29.56v552h16V884.7c0-25.47,20.91-40.69,41.13-40.69,10.15,0,19.69,3.62,27.59,10.47l.05,.04,.05,.04c30.86,25.44,57,58.43,75.59,95.39,22.29,44.31,33.59,93.35,33.59,145.75,0,57.59-19.91,102.31-40.98,149.66-23.61,53.03-48.02,107.86-48.02,186.34,0,32.29,23.55,76.16,33.68,93.52l79.98,136.97c8.76,15.21,11.51,31.51,7.96,47.15-3.6,15.86-13.45,29.78-28.45,40.23l-164.99,113c-30.34,20.71-49.51,51.72-54,87.32-4.72,37.45,7.7,76.13,34.05,106.1l277.75,317.71h-164.45c-29.03-39.41-60.47-71.49-98.78-100.8-34.67-26.52-70.56-47.44-108.56-69.57-52.97-30.86-107.74-62.76-167.94-114.42-69.5-59.58-125.97-144.45-185.75-234.3-54.36-81.7-110.57-166.18-181.89-240.36-63.74-66.64-160.23-128.19-253.53-187.72-101.16-64.53-205.76-131.26-270.31-205.11-88.08-100.92-123.61-205.32-164.75-326.21-3.34-9.82-6.8-19.97-10.28-30.13l-1.92-5.59-5.19,2.82-82.98,44.99c-17.19,9.23-36.79,14.11-56.68,14.11-41.31,0-76.3-20.45-94.49-54.95l292.8-190.66c20.64,35.79,45.78,63.26,74.79,81.71,27.49,17.48,57.41,26.34,88.95,26.34,18.26,0,36.53-3.04,54.32-9.03,17.23-5.81,33.58-14.23,48.6-25.05l178-128,3.43-2.47-1.86-3.79c-14.45-29.5-21.98-57.36-22.39-82.8-.37-22.76,4.93-43.09,15.74-60.43,9.92-15.9,24.53-28.98,42.28-37.83,17.22-8.59,37.14-13.13,57.6-13.13m0-5c-84.4,0-160.08,74.07-97.72,201.38l-178,128c-28.89,20.8-63.86,33.14-100,33.14-57.68,0-118.35-31.45-162-110.14l-301,196c19.96,41.92,60.29,61.7,100.96,61.7,20.44,0,40.98-5,59.04-14.7l83-45c46,134,80,248,176,358,125,143,392,255,524,393,150,156,235,361,368,475,148,127,268,138,376,286h178l-285-326c-51-58-44-143,19-186l165-113c33-23,41-61,22-94l-80-137c-14-24-33-63-33-91,0-148,89-213,89-336,0-115-54-198-111-245-9.29-8.05-20.21-11.69-30.87-11.69-23.74,0-46.13,18.08-46.13,45.69v547h-6V884.7c0-27.61-21.92-45.69-45.69-45.69-10.67,0-21.71,3.64-31.31,11.69-56,47-111,130-111,245,0,133,89,188,89,336,0,36-10,75-24,111l-478-805c-68-114-89-207-89-316-12.99-3.62-26.23-5.38-39.28-5.38h0Z"/></g><path d="M4447.54,1577.74c10.74,9.33,22.71,23.07,22.71,39.62,0,14.79-6.34,29.41-14.79,42.97h-4.57c3.87-8.1,11.09-22.89,11.09-36.98,0-20.43-13.91-36.63-32.22-40.68v88.4c0,18.31-15.5,29.93-32.23,29.93-8.1,0-16.38-4.4-16.38-13.03,0-12.5,16.03-24.3,30.46-24.3,4.05,0,8.45,.88,11.09,2.29v-126.96h4.4c0,16.9,9.68,29.41,20.43,38.74Z"/></g></g></svg>