<?xml version="1.0" encoding="UTF-8"?><svg xmlns="http://www.w3.org/2000/svg" viewBox="1706.4464111328125 268.419921875 1015.0975341796875 2126"><defs><style>.cls-1{fill:#fff}svg{height:100%}g{visibility:hidden}svg.default g#default,svg.default g#default *,svg.flipped g#flipped,svg.flipped g#flipped *,svg.happyNewYear g#happyNewYear,svg.happyNewYear g#happyNewYear *,svg.saeHaeBok g#saeHaeBok,svg.saeHaeBok g#saeHaeBok *{visibility:visible}</style></defs><g id="default"><path d="M2721.42,2394.42c2-41-20-95-78-113,14-111,2-262-91-441-59-114-90-265-118-361-26-88-58-150-86-211-29-63-31-122,23-197,21-28,18-61-10-80-69-46-162-117-162-206,0-128,77-175,77-292,0-131-75-225-124-225-21,0-41,17-41,41v476h-4V309.42c0-24-20-41-41-41-49,0-124,94-124,225,0,108,77,164,77,292s-210,1231-210,1231c-116,15-144,167-32,210l-32,168h976Z"/></g><g id="saeHaeBok"><g><path d="M2721.42,2394.42c2-41-20-95-78-113,14-111,2-262-91-441-59-114-90-265-118-361-26-88-58-150-86-211-29-63-31-122,23-197,21-28,18-61-10-80-69-46-162-117-162-206,0-128,77-175,77-292,0-131-75-225-124-225-21,0-41,17-41,41v476h-4V309.42c0-24-20-41-41-41-49,0-124,94-124,225,0,108,77,164,77,292s-210,1231-210,1231c-116,15-144,167-32,210l-32,168h976Z"/><g><path class="cls-1" d="M2408.15,2259.11l-67.94,1.12v-1.12c16.56-2.81,30.6-9.55,32.57-14.6,1.12-3.09-.56-6.74-5.33-8.14-4.77-1.4-13.76-.28-24.43,1.68v-.56c20.21-7.3,31.44-19.09,31.44-27.79,0-7.02-5.33-12.07-14.32-10.95-11.75,1.53-33.96,16.78-45.48,31.57v-41.12h-11.51v56.99h2.53c11.79-17.41,34.25-37.06,48.01-40.99,5.05-1.4,8.7,.56,8.7,4.77,.28,10.39-13.48,23.3-36.5,31.44l.56,3.09c13.48-3.93,23.3-5.05,29.76-3.93,4.21,.84,4.77,3.65,1.68,6.46-6.18,5.61-23.02,13.2-43.8,13.48l-32.85,.56v3.65l94.61-1.4v.28l-70.19,23.3,.84,3.09c11.23-4.21,30.6-7.58,42.39-6.18,8.98,1.12,17.13,4.77,16.84,11.79-.28,9.83-16.84,16.56-29.2,16.56l-.28,2.81c20.21,1.68,40.71-5.9,43.8-18.81,4.49-18.81-21.34-17.13-29.2-15.72l-.28-1.12,57.55-16.28v-3.93Z"/><rect class="cls-1" x="2381.2" y="2189.2" width="11.51" height="56.99"/><path class="cls-1" d="M2131.89,2191.45l-22.46,59.52-.84-.56v-61.2h-11.51v99.11h2.53l30.6-81.42c.28-.84,1.68-.84,1.68,.28l-.56,81.14c0,12.35-8.7,27.79-24.99,27.79-9.83,0-18.81-4.21-26.67-13.48l-.12,.08c2.92-3.05,5.48-6.94,7.42-11.87,7.86-19.93-.56-36.22-11.79-35.94-6.74,.28-14.6,4.77-21.62,17.69l8.42-83.38h-11.79l-10.11,96.02c-1.4,14.04-7.58,23.02-18.25,23.02-3.37,0-8.7-1.68-12.63-7.3l-1.97,.84c3.65,7.58,10.39,11.23,18.53,11.23,12.07,0,21.62-9.55,25.83-25.27,3.37-12.35,11.23-26.95,18.53-26.95,6.74,0,11.23,14.6,7.3,28.07-4.21,14.6-15.44,21.62-24.71,21.62v2.25c7.6,.39,17.62-1.39,25.49-8.7,8.4,11.04,19.81,16.56,30.94,16.56,22.18,0,35.09-13.48,35.09-35.66l.28-91.52c0-7.58-10.11-8.7-12.63-1.97Z"/><path class="cls-1" d="M2259.91,2191.45l-22.46,59.52-.84-.56v-61.2h-11.51v99.11h2.53l30.6-81.42c.28-.84,1.68-.84,1.68,.28l-.56,81.14c0,12.35-8.7,27.79-24.99,27.79-9.4,0-18.03-3.87-25.64-12.31,5.21-6.67,8.51-15.96,8.51-26.15,0-19.93-9.83-29.48-19.93-29.48-6.74,0-12.07,4.21-15.16,8.7l1.97,1.4c3.37-3.93,7.02-6.46,12.35-5.61,7.86,1.12,9.55,13.2,9.55,24.99,0,14.6-2.81,32.85-16.28,32.85-12.63,0-16.56-18.25-16.56-32.85,0-30.6,24.14-46.04,47.73-47.45v-3.37h-32.13l7.71-11.23v-26.39h-11.23v37.62h-28.08v3.65l42.96-.28v1.12c-24.99,9.26-38.46,26.11-38.46,46.32s11.79,36.5,28.08,36.5c6.76,0,13.06-3.43,17.91-9.03,8.27,10.32,18.77,15.49,29.53,15.49,22.18,0,35.09-13.48,35.09-35.66l.28-91.52c0-7.58-10.11-8.7-12.63-1.97Z"/></g></g></g><g id="happyNewYear"><g><path d="M2721.42,2394.42c2-41-20-95-78-113,14-111,2-262-91-441-59-114-90-265-118-361-26-88-58-150-86-211-29-63-31-122,23-197,21-28,18-61-10-80-69-46-162-117-162-206,0-128,77-175,77-292,0-131-75-225-124-225-21,0-41,17-41,41v476h-4V309.42c0-24-20-41-41-41-49,0-124,94-124,225,0,108,77,164,77,292s-210,1231-210,1231c-116,15-144,167-32,210l-32,168h976Z"/><g><path class="cls-1" d="M2025.26,2131.41h9.01l2.25,2.25v73.2l-2.25,2.25h-9.01v2.25h88.96v-2.25h-9.01l-2.25-2.25v-73.2l2.25-2.25h9.01v-2.25h-88.96v2.25Zm22.52,2.25l2.25-2.25h39.41l2.25,2.25v33.78h-43.92v-33.78Zm0,36.04h43.92v37.16l-2.25,2.25h-39.41l-2.25-2.25v-37.16Z"/><path class="cls-1" d="M2148.12,2183.21c-17.12,4.62-23.2,9.23-23.2,17.68s7.09,11.6,17.34,11.6c9.01,0,14.19-3.15,18.69-11.26h1.13v10.13h18.02v-2.25h-6.76l-2.25-2.25v-36.04c0-11.49-8.11-18.02-21.73-18.02-12.72,0-21.06,6.08-21.62,16.89l-.56,11.26,10.13-4.5v-9.01c0-7.88,4.73-12.39,11.82-12.39s11.82,5.63,11.82,15.77v9.01l-12.84,3.38Zm12.84,6.76c0,11.6-7.32,20.27-16.1,20.27-5.86,0-9.23-2.14-9.23-9.68,0-9.35,6.64-14.19,25.34-18.47v7.88Z"/><path class="cls-1" d="M2356.23,2227.12l28.49-69.82h7.09v-2.25h-67.57v2.25h7.88l24.77,61.03-3.15,7.66c-.56,1.46-1.35,2.25-2.82,2.25h-16.55l-2.25,11.26,7.88-.56c8.11-.56,12.95-3.83,16.22-11.82Zm-12.27-67.57l2.25-2.25h32.43l2.25,2.25-18.36,45.27h-1.13l-17.45-45.27Z"/><polygon class="cls-1" points="2012.03 2239.52 2031.17 2239.52 2033.42 2241.77 2033.42 2299.2 2032.29 2299.2 1983.87 2237.26 1962.48 2237.26 1962.48 2239.52 1974.3 2239.52 1976.55 2241.77 1976.55 2314.96 1974.3 2317.22 1962.48 2317.22 1962.48 2319.47 2000.76 2319.47 2000.76 2317.22 1981.62 2317.22 1979.37 2314.96 1979.37 2253.03 1980.49 2253.03 2032.29 2319.47 2036.24 2319.47 2036.24 2241.77 2038.49 2239.52 2050.31 2239.52 2050.31 2237.26 2012.03 2237.26 2012.03 2239.52"/><path class="cls-1" d="M2085.9,2317.22c-12.73,0-19.93-13.06-19.93-27.03,0-.34,0-1.46,.11-2.25h37.16l3.38-3.38c0-15.2-9.57-23.65-24.55-23.65-16.55,0-27.25,11.71-27.25,30.74,0,17.45,10.14,28.94,28.27,28.94,15.09,0,22.52-11.37,24.66-27.03l-2.36-.45c-2.14,14.3-8.9,24.1-19.48,24.1Zm-3.49-54.05c7.77,0,12.95,8.9,12.95,20.27l-2.25,2.25h-26.91c1.24-13.06,8.22-22.52,16.22-22.52Z"/><path class="cls-1" d="M2114.51,2265.42h6.76l18.58,54.05h5.52l13.4-39.19h1.13l13.18,39.19h5.86l18.92-54.05h6.76v-2.25h-90.09v2.25Zm77.59,0l2.25,2.25-13.63,38.62h-1.13l-13.4-40.88h25.9Zm-57.32,0h26.13l-13.85,40.88h-1.13l-13.4-38.62,2.25-2.25Z"/><path class="cls-1" d="M2278.7,2239.52h8.67s8.73,0,8.73,0v-2.25h-18.02l-2.25-2.25v-27.7h1.8c4.17,3.27,9.68,5.18,15.54,5.18,15.65,0,27.7-13.63,27.7-29.84,0-17.57-10.81-29.84-26.35-29.84-8,0-15.54,3.38-18.69,9.01h-1.13v-9.01c-5.63,2.81-12.39,4.5-18.02,4.5v2.25h9.01v75.45l-2.25,2.25h-6.76s-32.66,0-32.66,0h0s-18.02,0-18.02,0l-2.25-2.25v-27.7h1.8c4.17,3.27,9.68,5.18,15.54,5.18,15.65,0,27.7-13.63,27.7-29.84,0-17.57-10.81-29.84-26.35-29.84-8,0-15.54,3.38-18.69,9.01h-1.13v-9.01c-5.63,2.81-12.39,4.5-18.02,4.5v2.25h9.01v75.45l-2.25,2.25h-6.76v2.25h21.68s9.01,0,9.01,0l2.25,2.25,23.65,45.04v28.15l-2.25,2.25h-9.01v2.25h33.78v-2.25h-9.01l-2.25-2.25v-28.15l26.24-47.3Zm-2.87-66.33c0-10.25,6.64-16.89,16.44-16.89,10.47,0,17.34,11.26,17.34,26.69,0,14.19-6.76,26.13-17.79,26.13-9.8,0-15.99-6.19-15.99-18.02v-17.91Zm-72.07,0c0-10.25,6.64-16.89,16.44-16.89,10.47,0,17.34,11.26,17.34,26.69,0,14.19-6.76,26.13-17.79,26.13-9.8,0-15.99-6.19-15.99-18.02v-17.91Zm47.92,109.12h-1.13l-20.61-40.54,2.25-2.25h40.09l2.25,2.25-22.86,40.54Z"/><path class="cls-1" d="M2312.26,2317.22c-12.72,0-19.93-13.06-19.93-27.03,0-.34,0-1.46,.11-2.25h37.16l3.38-3.38c0-15.2-9.57-23.65-24.55-23.65-16.55,0-27.25,11.71-27.25,30.74,0,17.45,10.13,28.94,28.26,28.94,15.09,0,22.52-11.37,24.66-27.03l-2.37-.45c-2.14,14.3-8.9,24.1-19.48,24.1Zm-3.49-54.05c7.77,0,12.95,8.9,12.95,20.27l-2.25,2.25h-26.91c1.24-13.06,8.22-22.52,16.22-22.52Z"/><path class="cls-1" d="M2391.54,2314.96v-36.04c0-11.49-8.11-18.02-21.73-18.02-12.72,0-21.06,6.08-21.62,16.89l-.56,11.26,10.13-4.5v-9.01c0-7.88,4.73-12.39,11.82-12.39s11.82,5.63,11.82,15.76v9.01l-12.84,3.38c-17.12,4.62-23.2,9.23-23.2,17.68s7.09,11.6,17.34,11.6c9.01,0,14.19-3.15,18.69-11.26h1.13v10.13h18.02v-2.25h-6.76l-2.25-2.25Zm-10.13-16.89c0,11.6-7.32,20.27-16.1,20.27-5.86,0-9.23-2.14-9.23-9.68,0-9.35,6.64-14.19,25.34-18.47v7.88Z"/><path class="cls-1" d="M2441.65,2272.17h9.01l2.25-11.26-9.01,.56c-9.68,.56-13.85,8.11-16.89,17.45h-1.13v-18.02c-5.63,2.82-12.39,4.5-18.02,4.5v2.25h9.01v47.3l-2.25,2.25h-6.76v2.25h39.41v-2.25h-18.02l-2.25-2.25v-24.77c0-11.15,5.86-18.02,14.64-18.02Z"/></g></g></g><g id="flipped"><g><g><path class="cls-1" d="M1708.98,2391.92c-.53-20.91,5.33-43.14,16.24-61.34,13.53-22.6,34.31-38.77,60.1-46.77l2-.62-.26-2.08c-7.93-62.88-6.13-128.24,5.36-194.26,14.05-80.75,42.78-163.27,85.38-245.28,45.35-87.63,74.42-197.86,97.77-286.44,7.14-27.07,13.88-52.63,20.41-75.02,21.71-73.5,47.24-127.99,71.93-180.69,4.83-10.31,9.39-20.04,13.95-29.97,16.02-34.79,22.32-65.06,19.84-95.25-2.77-33.73-16.86-67.83-43.09-104.26-10.52-14.03-14.99-29.63-12.59-43.95,2.17-13,9.77-24.24,21.97-32.52,32.52-21.68,74.13-51.2,107.31-87.25,37.02-40.21,55.79-80.86,55.79-120.82,0-65.98-20.35-110.73-40.02-154.01-19.02-41.83-36.98-81.34-36.98-137.99s15.36-115.6,43.25-160.3c23.93-38.37,53.92-62.2,78.25-62.2,18.52,0,38.5,14.72,38.5,38.5v478.5h9V309.42c0-23.78,19.98-38.5,38.5-38.5,24.34,0,54.32,23.83,78.25,62.2,27.89,44.7,43.25,101.63,43.25,160.3,0,51.18-17.41,90.42-35.84,131.96-20.24,45.62-41.16,92.79-41.16,160.04,0,122.81,207.94,1220.39,210.04,1231.47l.34,1.78,1.8,.23c62.03,8.02,94.94,54.61,100.04,97.23,2.66,22.23-1.69,43.81-12.57,62.4-11.87,20.29-31.25,36.04-56.05,45.56l-1.95,.75,31.83,167.08h-970.57Z"/><path d="M2361.58,273.42c11.04,0,23.82,5.42,36.97,15.68,13.86,10.81,27.4,26.49,39.16,45.34,27.64,44.31,42.87,100.77,42.87,158.98,0,50.65-17.3,89.65-35.62,130.95-20.34,45.86-41.38,93.28-41.38,161.05,0,51.72,35.35,274.75,105.08,662.88,51.9,288.93,104.48,566.28,105.01,569.05l.68,3.56,3.6,.46c27.14,3.51,50.85,15.08,68.56,33.47,16.16,16.78,26.57,38.64,29.31,61.58,2.59,21.68-1.64,42.72-12.24,60.84-11.58,19.79-30.53,35.18-54.78,44.49l-3.9,1.5,.78,4.11,30.87,162.06h-965.08c-.02-19.73,5.67-40.45,15.91-57.56,13.21-22.06,33.5-37.85,58.69-45.67l4-1.24-.52-4.16c-7.9-62.64-6.1-127.74,5.34-193.52,14.01-80.5,42.65-162.78,85.14-244.56,45.48-87.87,74.58-198.25,97.97-286.95,7.13-27.05,13.87-52.6,20.38-74.94,21.66-73.32,47.15-127.73,71.79-180.34,4.83-10.31,9.39-20.05,13.95-29.98,16.2-35.2,22.58-65.86,20.07-96.5-2.81-34.19-17.05-68.71-43.55-105.51l-.03-.04-.03-.04c-10.08-13.44-14.38-28.36-12.1-42,2.06-12.3,9.29-22.98,20.87-30.84,32.65-21.77,74.42-51.41,107.78-87.65,17.45-18.96,31.02-38.15,40.32-57.04,10.7-21.72,16.12-43.75,16.12-65.48,0-66.52-20.46-111.52-40.25-155.05-18.9-41.58-36.75-80.85-36.75-136.95s15.22-114.67,42.87-158.98c11.76-18.86,25.3-34.54,39.16-45.34,13.15-10.26,25.93-15.68,36.97-15.68,9.08,0,18.16,3.69,24.93,10.12,7.14,6.79,11.07,15.98,11.07,25.88v481h14V309.42c0-9.9,3.93-19.09,11.07-25.88,6.77-6.43,15.85-10.12,24.93-10.12m0-5c-21,0-41,17-41,41v476h-4V309.42c0-24-20-41-41-41-49,0-124,94-124,225,0,117,77,164,77,292,0,89-93,160-162,206-28,19-31,52-10,80,54,75,52,134,23,197-28,61-60,123-86,211-28,96-59,247-118,361-93,179-105,330-91,441-58,18-80,72-78,113h976l-32-168c112-43,84-195-32-210,0,0-210-1107-210-1231s77-184,77-292c0-131-75-225-124-225h0Z"/></g><path d="M2301.93,947.74c10.74,9.33,22.71,23.07,22.71,39.62,0,14.79-6.34,29.41-14.79,42.97h-4.57c3.87-8.1,11.09-22.89,11.09-36.98,0-20.43-13.91-36.63-32.22-40.68v88.4c0,18.31-15.5,29.93-32.23,29.93-8.1,0-16.38-4.4-16.38-13.03,0-12.5,16.03-24.3,30.46-24.3,4.05,0,8.45,.88,11.09,2.29v-126.96h4.4c0,16.9,9.68,29.41,20.43,38.74Z"/></g></g></svg>