<?xml version="1.0" encoding="UTF-8"?><svg xmlns="http://www.w3.org/2000/svg" viewBox="0 0 4531.48 2436"><defs><style>.cls-1{fill:#fff}svg{height:100%}g{visibility:hidden}svg.default g#default,svg.default g#default *,svg.flipped g#flipped,svg.flipped g#flipped *,svg.happyNewYear g#happyNewYear,svg.happyNewYear g#happyNewYear *,svg.saeHaeBok g#saeHaeBok,svg.saeHaeBok g#saeHaeBok *{visibility:visible}</style></defs><g id="default"><path d="M2247.73,1234.7c378,191,365,416,365,816,120,0,139,154-5,215v113h-718c8-44,34-85,82-108l-196-458c-51-118-50-252-2-371l40-99c33-81,53-161,32-246-9-37-5-77,18-111,35-51,90-136,90-216,0-128-76-183-76-292,0-101,47-172,97-215,26-23,67-4,67,31v476h4V293.7c0-35,41-54,68-31,49,43,97,114,97,215,0,117-77,164-77,292,0,78,48,161,83,213,23,33,32,71,22,109l-17,62c-10,38-3,67,26,81Z"/></g><g id="saeHaeBok"><g><path d="M2247.73,1234.7c378,191,365,416,365,816,120,0,139,154-5,215v113h-718c8-44,34-85,82-108l-196-458c-51-118-50-252-2-371l40-99c33-81,53-161,32-246-9-37-5-77,18-111,35-51,90-136,90-216,0-128-76-183-76-292,0-101,47-172,97-215,26-23,67-4,67,31v476h4V293.7c0-35,41-54,68-31,49,43,97,114,97,215,0,117-77,164-77,292,0,78,48,161,83,213,23,33,32,71,22,109l-17,62c-10,38-3,67,26,81Z"/><g><path class="cls-1" d="M2485.15,2259.11l-67.94,1.12v-1.12c16.56-2.81,30.6-9.55,32.57-14.6,1.12-3.09-.56-6.74-5.33-8.14-4.77-1.4-13.76-.28-24.43,1.68v-.56c20.21-7.3,31.44-19.09,31.44-27.79,0-7.02-5.33-12.07-14.32-10.95-11.75,1.53-33.96,16.78-45.48,31.57v-41.12h-11.51v56.99h2.53c11.79-17.41,34.25-37.06,48.01-40.99,5.05-1.4,8.7,.56,8.7,4.77,.28,10.39-13.48,23.3-36.5,31.44l.56,3.09c13.48-3.93,23.3-5.05,29.76-3.93,4.21,.84,4.77,3.65,1.68,6.46-6.18,5.61-23.02,13.2-43.8,13.48l-32.85,.56v3.65l94.61-1.4v.28l-70.19,23.3,.84,3.09c11.23-4.21,30.6-7.58,42.39-6.18,8.98,1.12,17.13,4.77,16.84,11.79-.28,9.83-16.84,16.56-29.2,16.56l-.28,2.81c20.21,1.68,40.71-5.9,43.8-18.81,4.49-18.81-21.34-17.13-29.2-15.72l-.28-1.12,57.55-16.28v-3.93Z"/><rect class="cls-1" x="2458.2" y="2189.2" width="11.51" height="56.99"/><path class="cls-1" d="M2208.89,2191.45l-22.46,59.52-.84-.56v-61.2h-11.51v99.11h2.53l30.6-81.42c.28-.84,1.68-.84,1.68,.28l-.56,81.14c0,12.35-8.7,27.79-24.99,27.79-9.83,0-18.81-4.21-26.67-13.48l-.12,.08c2.92-3.05,5.48-6.94,7.42-11.87,7.86-19.93-.56-36.22-11.79-35.94-6.74,.28-14.6,4.77-21.62,17.69l8.42-83.38h-11.79l-10.11,96.02c-1.4,14.04-7.58,23.02-18.25,23.02-3.37,0-8.7-1.68-12.63-7.3l-1.97,.84c3.65,7.58,10.39,11.23,18.53,11.23,12.07,0,21.62-9.55,25.83-25.27,3.37-12.35,11.23-26.95,18.53-26.95,6.74,0,11.23,14.6,7.3,28.07-4.21,14.6-15.44,21.62-24.71,21.62v2.25c7.6,.39,17.62-1.39,25.49-8.7,8.4,11.04,19.81,16.56,30.94,16.56,22.18,0,35.09-13.48,35.09-35.66l.28-91.52c0-7.58-10.11-8.7-12.63-1.97Z"/><path class="cls-1" d="M2336.92,2191.45l-22.46,59.52-.84-.56v-61.2h-11.51v99.11h2.53l30.6-81.42c.28-.84,1.68-.84,1.68,.28l-.56,81.14c0,12.35-8.7,27.79-24.99,27.79-9.4,0-18.03-3.87-25.64-12.31,5.21-6.67,8.51-15.96,8.51-26.15,0-19.93-9.83-29.48-19.93-29.48-6.74,0-12.07,4.21-15.16,8.7l1.97,1.4c3.37-3.93,7.02-6.46,12.35-5.61,7.86,1.12,9.55,13.2,9.55,24.99,0,14.6-2.81,32.85-16.28,32.85-12.63,0-16.56-18.25-16.56-32.85,0-30.6,24.14-46.04,47.73-47.45v-3.37h-32.13l7.71-11.23v-26.39h-11.23v37.62h-28.08v3.65l42.96-.28v1.12c-24.99,9.26-38.46,26.11-38.46,46.32s11.79,36.5,28.08,36.5c6.76,0,13.06-3.43,17.91-9.03,8.27,10.32,18.77,15.49,29.53,15.49,22.18,0,35.09-13.48,35.09-35.66l.28-91.52c0-7.58-10.11-8.7-12.63-1.97Z"/></g></g></g><g id="happyNewYear"><g><path d="M2247.73,1234.7c378,191,365,416,365,816,120,0,139,154-5,215v113h-718c8-44,34-85,82-108l-196-458c-51-118-50-252-2-371l40-99c33-81,53-161,32-246-9-37-5-77,18-111,35-51,90-136,90-216,0-128-76-183-76-292,0-101,47-172,97-215,26-23,67-4,67,31v476h4V293.7c0-35,41-54,68-31,49,43,97,114,97,215,0,117-77,164-77,292,0,78,48,161,83,213,23,33,32,71,22,109l-17,62c-10,38-3,67,26,81Z"/><g><path class="cls-1" d="M2105.47,2211.36v-2.25h9.01l2.25-2.25v-73.2l-2.25-2.25h-9.01v-2.25h88.96v2.25h-9.01l-2.25,2.25v73.2l2.25,2.25h9.01v2.25h-88.96Zm22.52-43.92h43.92v-33.78l-2.25-2.25h-39.41l-2.25,2.25v33.78Zm2.25,41.67h39.41l2.25-2.25v-37.16h-43.92v37.16l2.25,2.25Z"/><path class="cls-1" d="M2205.14,2200.89c0-8.45,6.08-13.06,23.2-17.68l12.84-3.38v-9.01c0-10.14-4.5-15.77-11.82-15.77s-11.82,4.5-11.82,12.39v9.01l-10.13,4.5,.56-11.26c.56-10.81,8.9-16.89,21.62-16.89,13.63,0,21.73,6.53,21.73,18.02v36.04l2.25,2.25h6.76v2.25h-18.02v-10.13h-1.13c-4.5,8.11-9.68,11.26-18.69,11.26-10.25,0-17.34-3.38-17.34-11.6Zm36.04-10.92v-7.88c-18.69,4.28-25.34,9.12-25.34,18.47,0,7.54,3.38,9.68,9.23,9.68,8.78,0,16.1-8.67,16.1-20.27Z"/><path class="cls-1" d="M2264.82,2239.51v-2.25h6.76l2.25-2.25v-75.45h-9.01v-2.25c5.63,0,12.39-1.69,18.02-4.5v9.01h1.13c3.15-5.63,10.7-9.01,18.69-9.01,15.54,0,26.35,12.27,26.35,29.84,0,16.22-12.05,29.84-27.7,29.84-5.86,0-11.37-1.91-15.54-5.18h-1.8v27.7l2.25,2.25h18.02v2.25h-39.41Zm52.93-56.53c0-15.43-6.87-26.69-17.34-26.69-9.8,0-16.44,6.64-16.44,16.89v17.91c0,11.82,6.19,18.02,15.99,18.02,11.04,0,17.79-11.94,17.79-26.13Z"/><path class="cls-1" d="M2336.89,2239.51v-2.25h6.76l2.25-2.25v-75.45h-9.01v-2.25c5.63,0,12.39-1.69,18.02-4.5v9.01h1.13c3.15-5.63,10.7-9.01,18.69-9.01,15.54,0,26.35,12.27,26.35,29.84,0,16.22-12.05,29.84-27.7,29.84-5.86,0-11.37-1.91-15.54-5.18h-1.8v27.7l2.25,2.25h18.02v2.25h-39.41Zm52.93-56.53c0-15.43-6.87-26.69-17.34-26.69-9.8,0-16.44,6.64-16.44,16.89v17.91c0,11.82,6.19,18.02,15.99,18.02,11.04,0,17.79-11.94,17.79-26.13Z"/><path class="cls-1" d="M2472.03,2155.05v2.25h-7.09l-28.49,69.82c-3.27,8-8.11,11.26-16.22,11.82l-7.88,.56,2.25-11.26h16.55c1.46,0,2.25-.79,2.82-2.25l3.15-7.66-24.77-61.03h-7.88v-2.25h67.57Zm-29.28,49.77l18.36-45.27-2.25-2.25h-32.43l-2.25,2.25,17.45,45.27h1.13Z"/><path class="cls-1" d="M2042.69,2319.47v-2.25h11.82l2.25-2.25v-73.2l-2.25-2.25h-11.82v-2.25h21.4l48.42,61.94h1.13v-57.43l-2.25-2.25h-19.14v-2.25h38.29v2.25h-11.82l-2.25,2.25v77.7h-3.94l-51.8-66.44h-1.13v61.93l2.25,2.25h19.14v2.25h-38.29Z"/><path class="cls-1" d="M2135.03,2291.65c0-19.03,10.7-30.74,27.25-30.74,14.98,0,24.55,8.45,24.55,23.65l-3.38,3.38h-37.16c-.11,.79-.11,1.91-.11,2.25,0,13.96,7.21,27.03,19.93,27.03,10.58,0,17.34-9.8,19.48-24.1l2.36,.45c-2.14,15.65-9.57,27.03-24.66,27.03-18.13,0-28.27-11.49-28.27-28.94Zm38.29-5.97l2.25-2.25c0-11.37-5.18-20.27-12.95-20.27s-14.98,9.46-16.22,22.52h26.91Z"/><path class="cls-1" d="M2220.06,2319.47l-18.58-54.05h-6.76v-2.25h90.09v2.25h-6.76l-18.92,54.05h-5.86l-13.18-39.19h-1.13l-13.4,39.19h-5.52Zm6.08-13.18h1.13l13.85-40.88h-26.13l-2.25,2.25,13.4,38.62Zm33.67,0h1.13l13.63-38.62-2.25-2.25h-25.9l13.4,40.88Z"/><path class="cls-1" d="M2310.15,2319.47v-2.25h9.01l2.25-2.25v-28.15l-23.65-45.04-2.25-2.25h-9.01v-2.25h81.08v2.25h-8.67l-26.24,47.3v28.15l2.25,2.25h9.01v2.25h-33.78Zm20.61-37.16h1.13l22.86-40.54-2.25-2.25h-40.09l-2.25,2.25,20.61,40.54Z"/><path class="cls-1" d="M2361.39,2291.65c0-19.03,10.7-30.74,27.25-30.74,14.98,0,24.55,8.45,24.55,23.65l-3.38,3.38h-37.16c-.11,.79-.11,1.91-.11,2.25,0,13.96,7.21,27.03,19.93,27.03,10.58,0,17.34-9.8,19.48-24.1l2.37,.45c-2.14,15.65-9.57,27.03-24.66,27.03-18.13,0-28.26-11.49-28.26-28.94Zm38.29-5.97l2.25-2.25c0-11.37-5.18-20.27-12.95-20.27s-14.98,9.46-16.22,22.52h26.91Z"/><path class="cls-1" d="M2425.58,2309c0-8.45,6.08-13.06,23.2-17.68l12.84-3.38v-9.01c0-10.13-4.5-15.76-11.82-15.76s-11.82,4.5-11.82,12.39v9.01l-10.13,4.5,.56-11.26c.56-10.81,8.9-16.89,21.62-16.89,13.63,0,21.73,6.53,21.73,18.02v36.04l2.25,2.25h6.76v2.25h-18.02v-10.13h-1.13c-4.5,8.11-9.68,11.26-18.69,11.26-10.25,0-17.34-3.38-17.34-11.6Zm36.04-10.92v-7.88c-18.69,4.28-25.34,9.12-25.34,18.47,0,7.54,3.38,9.68,9.23,9.68,8.78,0,16.1-8.67,16.1-20.27Z"/><path class="cls-1" d="M2488.08,2319.47v-2.25h6.76l2.25-2.25v-47.3h-9.01v-2.25c5.63,0,12.39-1.69,18.02-4.5v18.02h1.13c3.04-9.35,7.21-16.89,16.89-17.45l9.01-.56-2.25,11.26h-9.01c-8.78,0-14.64,6.87-14.64,18.02v24.77l2.25,2.25h18.02v2.25h-39.41Z"/></g></g></g><g id="flipped"><g><g><path class="cls-1" d="M1841.67,2376.2v-112.16l-1.52-.65c-36.7-15.55-65.2-38.38-82.42-66.04-15.25-24.49-20.87-51.66-15.82-76.5,3.96-19.49,14.13-36.11,29.42-48.05,16.41-12.82,38.14-19.6,62.85-19.6h2.5v-2.5c0-13.05-.01-25.92-.03-38.61-.2-187.57-.36-335.73,45.08-459.56,48.18-131.29,146.43-228.62,318.57-315.6,28.64-13.83,38.09-42.83,27.29-83.87l-17.01-62.03c-9.48-36.02-2-73,21.64-106.91,55.38-82.28,83.45-154.41,83.45-214.43,0-65.98-20.35-110.73-40.02-154.01-19.02-41.83-36.98-81.34-36.98-137.99,0-45.94,10.04-89.05,29.85-128.12,16.26-32.07,38.56-60.67,66.29-85,7.24-6.17,15.94-9.44,25.13-9.44,9.87,0,19.66,3.9,26.86,10.69,7.65,7.21,11.86,17.11,11.86,27.87v478.5h9V293.7c0-10.75,4.2-20.65,11.82-27.88,7.16-6.79,16.84-10.68,26.56-10.68,9.03,0,17.49,3.26,24.47,9.43,27.95,24.04,50.37,52.63,66.67,85,19.56,38.86,29.48,81.96,29.48,128.13,0,51.79-17.24,91.07-35.5,132.66-19.91,45.35-40.5,92.25-40.5,159.34,0,75.9,48.33,156.06,90.44,217.42,20.94,30.95,27.2,69.66,17.63,108.99-9.94,40.22-11.34,81.27-4.29,125.48,5.85,36.66,17.42,75.44,36.4,122.05l40,98.99c23.98,59.44,36.07,121.66,35.94,184.93-.13,64.26-12.89,126.21-37.92,184.14l-196.95,460.21,2.16,1.04c42.42,20.32,70.75,56.92,80.06,103.25h-712.48Z"/><path d="M2446.05,257.64c8.41,0,16.3,3.05,22.81,8.81l.03,.02,.03,.02c27.67,23.8,49.89,52.13,66.04,84.21,19.39,38.5,29.22,81.23,29.22,127,0,51.26-17.14,90.31-35.29,131.65-20.01,45.59-40.71,92.73-40.71,160.35,0,35.73,10.89,76.46,32.37,121.04,17.85,37.05,39.59,70.22,58.49,97.76,20.54,30.37,26.68,68.38,17.29,107-10.02,40.56-11.44,81.94-4.33,126.49,5.88,36.85,17.49,75.81,36.55,122.59l40,99c11.81,29.29,20.84,59.79,26.84,90.66,5.98,30.81,8.99,62.21,8.92,93.33-.13,63.92-12.82,125.54-37.72,183.17l-196,458-1.89,4.41,4.32,2.07c40.77,19.54,68.31,54.36,78.06,98.49h-706.89v-111.31l-3.05-1.29c-36.23-15.35-64.33-37.84-81.28-65.06-14.91-23.95-20.41-50.47-15.5-74.68,3.84-18.9,13.7-35,28.51-46.58,15.96-12.48,37.17-19.07,61.31-19.07h5v-5c0-13.05-.01-25.92-.03-38.61-.2-187.33-.36-335.29,44.93-458.7,23.51-64.06,58.61-119.23,107.3-168.65,52.07-52.85,120.77-100.47,210.02-145.57,29.85-14.44,39.74-44.44,28.61-86.75v-.02s-.01-.02-.01-.02l-16.99-61.98c-4.68-17.8-5.12-35.98-1.31-54.04,3.69-17.5,11.29-34.59,22.58-50.8l.02-.03,.02-.03c55.64-82.67,83.85-155.27,83.85-215.79,0-66.52-20.46-111.52-40.25-155.05-18.9-41.58-36.75-80.85-36.75-136.95,0-45.54,9.95-88.27,29.58-126.99,16.11-31.77,38.21-60.11,65.69-84.24,6.8-5.78,14.93-8.84,23.5-8.84,9.23,0,18.4,3.65,25.15,10.01,7.14,6.73,11.07,15.98,11.07,26.05v481h14V293.7c0-10.06,3.92-19.31,11.04-26.06,6.7-6.35,15.75-10,24.84-10m0-5c-20.91,0-40.88,16.63-40.88,41.06v476h-4V293.7c0-24.43-19.97-41.06-41.22-41.06-9.19,0-18.63,3.12-26.78,10.06-49,43-97,114-97,215,0,117,77,164,77,292,0,78-48,161-83,213-23,33-32,71-22,109l17,62c10,38,3,67-26,81-378,191-365,416-365,816-120,0-139,154,5,215v113h718c-8-44-34-85-82-108l196-458c51-118,50-252,2-371l-40-99c-33-81-53-161-32-246,9-37,5-77-18-111-35-51-90-136-90-216,0-128,76-183,76-292,0-101-47-172-97-215-7.85-6.95-17.08-10.06-26.12-10.06h0Z"/></g><path d="M2424.73,920.74c10.74,9.33,22.71,23.07,22.71,39.62,0,14.79-6.34,29.41-14.79,42.97h-4.57c3.87-8.1,11.09-22.89,11.09-36.98,0-20.43-13.91-36.63-32.22-40.68v88.4c0,18.31-15.5,29.93-32.23,29.93-8.1,0-16.38-4.4-16.38-13.03,0-12.5,16.03-24.3,30.46-24.3,4.05,0,8.45,.88,11.09,2.29v-126.96h4.4c0,16.9,9.68,29.41,20.43,38.74Z"/></g></g></svg>