<?xml version="1.0" encoding="UTF-8"?><svg xmlns="http://www.w3.org/2000/svg" viewBox="0 0 5148 2436"><defs><style>.cls-1{fill:#fff;}.cls-2{fill:#ff5a28;}svg{height:100%}g{visibility:hidden}svg.default g#default,svg.default g#default *,svg.flipped g#flipped,svg.flipped g#flipped *,svg.happyNewYear g#happyNewYear,svg.happyNewYear g#happyNewYear *,svg.saeHaeBok g#saeHaeBok,svg.saeHaeBok g#saeHaeBok *{visibility:visible}</style></defs><g id="default"><path class="cls-2" d="M3131.81,1264.95c0-89.11-44.87-167.73-113.24-214.54,24.89-39.86,39.29-86.96,39.29-137.42,0-135.1-103.11-246.1-234.92-258.63-21.92-121.31-128.05-213.33-255.67-213.33s-233.76,92.02-255.67,213.33c-131.81,12.54-234.92,123.54-234.92,258.63,0,50.46,14.4,97.55,39.29,137.42-68.37,46.81-113.24,125.43-113.24,214.54s44.87,167.73,113.24,214.54c-24.89,39.86-39.29,86.96-39.29,137.42,0,135.1,103.11,246.1,234.92,258.63,21.92,121.31,128.05,213.33,255.67,213.33s233.76-92.02,255.67-213.33c131.81-12.54,234.92-123.54,234.92-258.63,0-50.46-14.4-97.55-39.29-137.42,68.37-46.81,113.24-125.43,113.24-214.54Z"/></g><g id="saeHaeBok"><g><path class="cls-2" d="M3131.81,1264.95c0-89.11-44.87-167.73-113.24-214.54,24.89-39.86,39.29-86.96,39.29-137.42,0-135.1-103.11-246.1-234.92-258.63-21.92-121.31-128.05-213.33-255.67-213.33s-233.76,92.02-255.67,213.33c-131.81,12.54-234.92,123.54-234.92,258.63,0,50.46,14.4,97.55,39.29,137.42-68.37,46.81-113.24,125.43-113.24,214.54s44.87,167.73,113.24,214.54c-24.89,39.86-39.29,86.96-39.29,137.42,0,135.1,103.11,246.1,234.92,258.63,21.92,121.31,128.05,213.33,255.67,213.33s233.76-92.02,255.67-213.33c131.81-12.54,234.92-123.54,234.92-258.63,0-50.46-14.4-97.55-39.29-137.42,68.37-46.81,113.24-125.43,113.24-214.54Z"/><g><rect x="2501.57" y="784.88" width="45.51" height="8.71"/><rect x="2537.5" y="838.68" width="9.24" height="64.44"/><path d="M2555.2,925.38h9.59v-9.64h53.68v7.71h9.59v-70.4h-72.85v72.32Zm40.43-46.04v-17.75h22.83v17.75h-22.83Zm22.83,8.54v19.15h-22.83v-19.15h22.83Zm-32.24,0v19.15h-21.43v-19.15h21.43Zm0-26.29v17.75h-21.43v-17.75h21.43Z"/><path d="M2503.9,912.87l.22-.62c5.09-14.12,7.56-33.38,7.56-58.88v-15.05h-9.24v15.05c0,25.35-1.86,40.28-6.63,53.28l-.13,.36,8.21,5.86Z"/><rect x="2554.85" y="784.18" width="76.35" height="8.71"/><path d="M2559.93,804.69v36.22h63.56v-36.22h-63.56Zm9.76,27.86v-19.33h44.04v19.33h-44.04Z"/><polygon points="2519.8 925.38 2529.56 925.38 2529.56 824.79 2551.46 824.79 2551.46 815.55 2497.02 815.55 2497.02 824.79 2519.8 824.79 2519.8 925.38"/><path d="M2467.18,1021.23h-73.94l.52-1.32c2.39-6.04,20.04-11.32,34.43-14.69,32.32-7.53,38.01-14.23,38.01-25.55,0-14.52-16.49-23.89-42.02-23.89-18.96,0-34.27,3.59-46.77,10.97l.56,13.58c11.5-7.24,27.28-11.06,45.78-11.06,15.27,0,25.93,4.32,25.93,10.51,0,4.32-2.79,6.66-32.31,14.17h0c-38.28,9.69-43.56,24.06-43.56,38.14v2.4h93.38v-13.27Z"/><path d="M2669.37,979.66c11.33-7.18,24.94-10.39,43.8-10.39,16.51,0,28.97,4.75,28.97,11.06,0,2.99-2.3,8.02-17.68,8.02h-30.73v12.51h30.41c18.4,0,21.15,5.64,21.15,8.99,0,7.76-12.18,12.58-31.79,12.58s-35.06-3.47-46.2-10.31l-.47,13.78c12.08,6.49,27.68,9.91,45.15,9.91,29.16,0,48.75-9.78,48.75-24.33,0-7.61-2.01-13.37-11.84-16.78l-2.13-.74,2-1.03c8.13-4.17,8.81-10.15,8.81-15.43,0-12.73-18.53-21.61-45.06-21.61-16.8,0-30.65,3.22-43.52,10.13l.37,13.64Z"/><path d="M2866.52,1040.93l-62.21,164.87-2.33-1.56v-169.53h-31.88v274.52h7l84.77-225.53c.78-2.33,4.67-2.33,4.67,.78l-1.56,224.75c0,34.22-24.11,76.99-69.21,76.99-26.04,0-49.94-10.68-71.03-34.08,14.44-18.46,23.59-44.24,23.59-72.46,0-55.22-27.22-81.66-55.21-81.66-18.66,0-33.44,11.67-41.99,24.11l5.44,3.89c9.33-10.89,19.44-17.89,34.22-15.55,21.77,3.11,26.44,36.55,26.44,69.21,0,40.44-7.78,90.99-45.11,90.99-35,0-45.88-50.55-45.88-90.99,0-84.77,66.88-127.54,132.2-131.43v-9.33h-89.01l21.35-31.11v-73.1h-31.11v104.21h-77.77v10.11l118.98-.78v3.11c-69.21,25.66-106.54,72.32-106.54,128.32s32.66,101.1,77.77,101.1c18.72,0,36.16-9.47,49.62-24.98,22.91,28.57,52,42.86,81.81,42.86,61.44,0,97.21-37.33,97.21-98.76l.78-253.52c0-21-28-24.11-35-5.44Z"/><path d="M2557.81,1582.94c45.88-7.78,84.77-26.44,90.21-40.44,3.11-8.55-1.56-18.66-14.78-22.55-13.22-3.89-38.11-.78-67.66,4.67v-1.56c55.99-20.22,87.1-52.88,87.1-76.99,0-19.44-14.78-33.44-39.66-30.33-32.55,4.25-94.07,46.48-125.98,87.45v-110.3c37.83-12.67,59.08-45.67,59.08-92.99l.78-253.52c0-5.38-1.84-9.57-4.69-12.54,4.59-1.89,8.69-4.39,12.2-7.51,8.5-7.55,12.99-18.09,12.99-30.47s-4.49-22.93-12.99-30.47c-1.02-.9-2.09-1.75-3.2-2.56,5.24,.78,10.61,1.19,16.07,1.19,3.41,0,6.79-.17,10.12-.48-2.13,.98-4.19,2.04-6.17,3.21l.56,13.58c11.5-7.24,27.28-11.06,45.78-11.06,15.27,0,25.93,4.32,25.93,10.51,0,4.32-2.79,6.66-32.31,14.17h0c-38.28,9.69-43.56,24.06-43.56,38.14v2.4h93.38v-13.27h-73.94l.52-1.32c2.39-6.04,20.04-11.32,34.43-14.69,32.32-7.53,38.01-14.23,38.01-25.55,0-14.52-16.49-23.89-42.02-23.89-3.53,0-6.93,.12-10.21,.38,39.8-16.08,67.96-55.12,67.96-100.62,0-59.81-48.66-108.47-108.47-108.47s-108.47,48.66-108.47,108.47c0,43.37,25.59,80.87,62.45,98.21-.58-.01-1.16-.03-1.74-.03-14.24,0-26.31,4.03-34.89,11.66-8.5,7.55-12.99,18.08-12.99,30.47s4.49,22.93,12.99,30.47c7.33,6.51,17.21,10.4,28.82,11.39-.58,.99-1.1,2.06-1.53,3.22l-62.21,164.87-2.33-1.56v-169.53h-31.88v274.52h7l84.77-225.53c.78-2.33,4.67-2.33,4.67,.78l-1.56,224.75c0,34.22-24.11,76.99-69.21,76.99-27.22,0-52.1-11.67-73.88-37.33l-.24,.16c8.04-8.45,15.1-19.21,20.46-32.82,21.77-55.21-1.56-100.32-32.66-99.54-18.66,.78-40.44,13.22-59.88,48.99l23.33-230.97h-32.66l-28,265.96c-3.89,38.88-21,63.77-50.55,63.77-9.33,0-24.11-4.67-35-20.22l-5.44,2.33c10.11,21,28.77,31.11,51.33,31.11,33.44,0,59.88-26.44,71.55-69.99,9.33-34.22,31.11-74.66,51.33-74.66,18.66,0,31.11,40.44,20.22,77.77-11.67,40.44-42.77,59.88-68.44,59.88v6.22c21.04,1.08,48.82-3.84,70.61-24.08,23.27,30.57,54.87,45.86,85.7,45.86,2.12,0,4.19-.05,6.25-.14v148.65h7c32.66-48.22,94.88-102.65,132.98-113.54,14-3.89,24.11,1.56,24.11,13.22,.78,28.77-37.33,64.55-101.1,87.1l1.56,8.55c37.33-10.89,64.55-14,82.43-10.89,11.67,2.33,13.22,10.11,4.67,17.89-17.11,15.55-63.77,36.55-121.32,37.33l-90.99,1.56v10.11l262.08-3.89v.78l-194.42,64.55,2.33,8.55c31.11-11.67,84.91-22.08,117.43-17.11,31.6,4.83,45.08,21.44,46.66,40.83,2.94,36-42.06,72-80.88,71.17l-.78,7.78c55.99,4.67,111.59-33.94,121.32-77.39,11.7-52.28-59.1-55.61-80.88-51.72l-.78-3.11,159.42-45.1v-10.89l-188.2,3.11v-3.11Zm9.46-828.01c55.47,0,100.6,45.13,100.6,100.6s-45.13,100.6-100.6,100.6-100.6-45.13-100.6-100.6,45.13-100.6,100.6-100.6Zm-81.28,240.91c0-17.46,13.16-28.75,33.53-28.75s33.53,11.55,33.53,28.75-13.79,28.75-33.53,28.75-33.53-11.55-33.53-28.75Z"/><rect x="2671.35" y="1389.3" width="31.88" height="157.87"/></g></g></g><g id="happyNewYear"><g><path class="cls-2" d="M3131.81,1264.95c0-89.11-44.87-167.73-113.24-214.54,24.89-39.86,39.29-86.96,39.29-137.42,0-135.1-103.11-246.1-234.92-258.63-21.92-121.31-128.05-213.33-255.67-213.33s-233.76,92.02-255.67,213.33c-131.81,12.54-234.92,123.54-234.92,258.63,0,50.46,14.4,97.55,39.29,137.42-68.37,46.81-113.24,125.43-113.24,214.54s44.87,167.73,113.24,214.54c-24.89,39.86-39.29,86.96-39.29,137.42,0,135.1,103.11,246.1,234.92,258.63,21.92,121.31,128.05,213.33,255.67,213.33s233.76-92.02,255.67-213.33c131.81-12.54,234.92-123.54,234.92-258.63,0-50.46-14.4-97.55-39.29-137.42,68.37-46.81,113.24-125.43,113.24-214.54Z"/><g><rect x="2466.08" y="1286.65" width="69.08" height="11.97"/><path d="M2467.44,1392.18c0,36.99-2.45,61.47-10.34,82.96l11.42,8.16c8.43-23.39,11.7-54.13,11.7-91.12v-22.58h-12.78v22.58Z"/><path d="M2556.65,1317.39v54.67h97.1v-54.67h-97.1Zm83.5,43.25h-69.9v-31.55h69.9v31.55Z"/><path d="M2549.31,1503.15h13.33v-14.96h84.86v11.97h13.33v-107.71h-111.51v110.7Zm61.2-99h36.99v29.1h-36.99v-29.1Zm0,40.8h36.99v31.28h-36.99v-31.28Zm-47.87-40.8h34.81v29.1h-34.81v-29.1Zm0,40.8h34.81v31.28h-34.81v-31.28Z"/><rect x="2521.84" y="1370.15" width="12.78" height="98.46"/><polygon points="2459.01 1347.03 2494.36 1347.03 2494.36 1503.15 2507.96 1503.15 2507.96 1347.03 2541.96 1347.03 2541.96 1334.25 2459.01 1334.25 2459.01 1347.03"/><rect x="2548.76" y="1285.56" width="116.96" height="11.97"/><path d="M2413.02,1057.95h-14.87l-3.72-3.72v-120.8l3.72-3.72h14.87v-3.72h-146.82v3.72h14.87l3.72,3.72v120.8l-3.72,3.72h-14.87v3.72h146.82v-3.72Zm-37.17-3.72l-3.72,3.72h-65.05l-3.72-3.72v-61.33h72.48v61.33Zm0-65.05h-72.48v-55.76l3.72-3.72h65.05l3.72,3.72v55.76Z"/><path d="M2468.95,1015.2c-28.25,7.62-38.29,15.24-38.29,29.18s11.71,19.14,28.62,19.14c14.87,0,23.42-5.2,30.85-18.58h1.86v16.73h29.74v-3.72h-11.15l-3.72-3.72v-59.47c0-18.96-13.38-29.74-35.87-29.74-21,0-34.75,10.04-35.68,27.88l-.93,18.58,16.73-7.43v-14.87c0-13.01,7.81-20.44,19.51-20.44s19.51,9.29,19.51,26.02v14.87l-21.19,5.58Zm21.19,11.15c0,19.14-12.08,33.45-26.58,33.45-9.66,0-15.24-3.53-15.24-15.98,0-15.43,10.97-23.42,41.82-30.48v13.01Z"/><path d="M2812.4,1087.69l47.02-115.23h11.71v-3.72h-111.51v3.72h13.01l40.89,100.73-5.2,12.64c-.93,2.42-2.23,3.72-4.65,3.72h-27.32l-3.72,18.58,13.01-.93c13.38-.93,21.37-6.32,26.76-19.51Zm-20.26-111.51l3.72-3.72h53.53l3.72,3.72-30.29,74.71h-1.86l-28.81-74.71Z"/><polygon points="2244.36 1108.12 2275.96 1108.12 2279.67 1111.84 2279.67 1206.63 2277.81 1206.63 2197.9 1104.41 2162.59 1104.41 2162.59 1108.12 2182.1 1108.12 2185.82 1111.84 2185.82 1232.65 2182.1 1236.36 2162.59 1236.36 2162.59 1240.08 2225.78 1240.08 2225.78 1236.36 2194.18 1236.36 2190.46 1232.65 2190.46 1130.43 2192.32 1130.43 2277.81 1240.08 2284.32 1240.08 2284.32 1111.84 2288.04 1108.12 2307.55 1108.12 2307.55 1104.41 2244.36 1104.41 2244.36 1108.12"/><path d="M2402.33,1197.33l-3.9-.74c-3.53,23.6-14.68,39.77-32.15,39.77-21,0-32.9-21.56-32.9-44.6,0-.56,0-2.42,.19-3.72h61.33l5.58-5.58c0-25.09-15.8-39.03-40.52-39.03-27.32,0-44.98,19.33-44.98,50.74,0,28.81,16.73,47.76,46.65,47.76,24.9,0,37.17-18.77,40.7-44.6Zm-41.82-50.18c12.82,0,21.37,14.68,21.37,33.45l-3.72,3.72h-44.42c2.04-21.56,13.57-37.17,26.76-37.17Z"/><path d="M2739.83,1236.36c-21,0-32.9-21.56-32.9-44.6,0-.56,0-2.42,.19-3.72h61.33l5.58-5.58c0-25.09-15.8-39.03-40.52-39.03-27.32,0-44.98,19.33-44.98,50.74,0,28.81,16.73,47.76,46.65,47.76,24.9,0,37.17-18.77,40.7-44.6l-3.9-.74c-3.53,23.6-14.68,39.77-32.15,39.77Zm-5.76-89.21c12.82,0,21.37,14.68,21.37,33.45l-3.72,3.72h-44.42c2.04-21.56,13.57-37.17,26.76-37.17Z"/><path d="M2870.67,1232.65v-59.47c0-18.96-13.38-29.74-35.87-29.74-21,0-34.75,10.04-35.68,27.88l-.93,18.59,16.73-7.43v-14.87c0-13.01,7.81-20.44,19.51-20.44s19.51,9.29,19.51,26.02v14.87l-21.19,5.58c-28.25,7.62-38.29,15.24-38.29,29.18s11.71,19.14,28.62,19.14c14.87,0,23.42-5.2,30.85-18.58h1.86v16.73h29.74v-3.72h-11.15l-3.72-3.72Zm-16.73-27.88c0,19.14-12.08,33.45-26.58,33.45-9.66,0-15.24-3.53-15.24-15.98,0-15.43,10.97-23.42,41.82-30.48v13.01Z"/><path d="M2953.37,1162.02h14.87l3.72-18.59-14.87,.93c-15.98,.93-22.86,13.38-27.88,28.81h-1.86v-29.74c-9.29,4.65-20.44,7.43-29.74,7.43v3.72h14.87v78.06l-3.72,3.72h-11.15v3.72h65.05v-3.72h-29.74l-3.72-3.72v-40.89c0-18.4,9.66-29.74,24.16-29.74Z"/><path d="M2386.97,1619.23c2.48-6.27,20.83-11.77,35.78-15.27,33.59-7.82,39.5-14.79,39.5-26.55,0-15.08-17.14-24.83-43.67-24.83-19.71,0-35.61,3.73-48.61,11.4l.58,14.12c11.95-7.53,28.35-11.5,47.57-11.5,15.86,0,26.94,4.49,26.94,10.93,0,4.48-2.89,6.92-33.58,14.73h0c-39.78,10.07-45.27,25-45.27,39.64v2.5h97.03v-13.79h-76.83l.54-1.37Z"/><path d="M2588.37,1619.23c2.48-6.27,20.83-11.77,35.78-15.27,33.59-7.82,39.5-14.79,39.5-26.55,0-15.08-17.14-24.83-43.67-24.83-.45,0-.89,.01-1.33,.02,66.04-21.66,113.87-83.87,113.87-157.06s-45.59-132.45-109.21-155.46h36.42v-3.72h-14.87l-3.72-3.72v-46.46l43.3-78.05h28.71v-3.72h-14.4s-15.34,0-15.34,0l-3.71-3.71v-45.72h2.97c6.88,5.39,15.98,8.55,25.65,8.55,25.83,0,45.72-22.49,45.72-49.25,0-28.99-17.84-49.25-43.49-49.25-13.2,0-25.65,5.58-30.85,14.87h-1.86v-14.87c-9.29,4.65-20.44,7.43-29.74,7.43v3.72h14.87v124.52l-3.71,3.71h-94.32s-.46,0-.46,0l-3.72-3.72v-45.72h2.97c6.88,5.39,15.98,8.55,25.65,8.55,25.83,0,45.72-22.49,45.72-49.25,0-28.99-17.84-49.25-43.49-49.25-13.2,0-25.65,5.58-30.85,14.87h-1.86v-14.87c-9.29,4.65-20.44,7.43-29.74,7.43v3.72h14.87v124.52l-3.72,3.72h-11.15v3.72h50.65l3.71,3.71,39.03,74.34v46.46l-3.72,3.72h-7.14c-14.14-3.95-29.04-6.07-44.43-6.07s-31.66,2.32-46.38,6.63l30.12-86.05h11.15v-3.72h-148.68v3.72h11.15l30.67,89.21h9.11l22.12-64.68h1.86l21.75,64.68h1.1c-63.62,23-109.21,84-109.21,155.46s45.3,132.07,108.6,155.25c-11.75,1.13-21.77,5.13-29.24,11.77-8.83,7.84-13.5,18.79-13.5,31.67s4.67,23.82,13.5,31.67c8.92,7.92,21.46,12.11,36.26,12.11s27.34-4.19,36.26-12.11c8.83-7.84,13.5-18.79,13.5-31.67s-4.67-23.82-13.5-31.67c-1.03-.92-2.12-1.78-3.25-2.6,5.47,.55,11.01,.83,16.62,.83,3.7,0,7.37-.13,11.01-.38-2.39,1.08-4.69,2.26-6.91,3.57l.58,14.12c11.95-7.53,28.35-11.5,47.57-11.5,15.86,0,26.94,4.49,26.94,10.93,0,4.48-2.89,6.92-33.58,14.73h0c-39.78,10.07-45.27,25-45.27,39.64v2.5h97.03v-13.79h-76.83l.54-1.37Zm91.34-620.57c0-16.91,10.97-27.88,27.13-27.88,17.28,0,28.62,18.59,28.62,44.05,0,23.42-11.15,43.12-29.36,43.12-16.17,0-26.39-10.22-26.39-29.74v-29.55Zm-118.94,0c0-16.91,10.97-27.88,27.13-27.88,17.28,0,28.62,18.59,28.62,44.05,0,23.42-11.15,43.12-29.36,43.12-16.17,0-26.39-10.22-26.39-29.74v-29.55Zm43.21,113.18l3.72-3.72h40.42s25.75,0,25.75,0l3.71,3.71-37.73,66.91h-1.86l-34.01-66.91Zm-136.78,106.49h-1.86l-22.12-63.75,3.72-3.72h43.12l-22.86,67.46Zm31.6-67.46h42.75l3.72,3.72-22.49,63.75h-1.86l-22.12-67.46Zm18.85,473.22c-20.84,0-34.84-12.01-34.84-29.88s13.67-29.88,34.84-29.88,34.84,12.01,34.84,29.88-14.33,29.88-34.84,29.88Zm-109.62-228.56c0-87.81,71.44-159.25,159.25-159.25s159.25,71.44,159.25,159.25-71.44,159.25-159.25,159.25-159.25-71.44-159.25-159.25Z"/><path d="M2756.01,1593.02l-2.21-.77,2.08-1.07c8.45-4.34,9.16-10.55,9.16-16.03,0-13.22-19.25-22.46-46.82-22.46-17.46,0-31.85,3.35-45.23,10.53l.39,14.18c11.77-7.46,25.91-10.8,45.52-10.8,17.16,0,30.1,4.94,30.1,11.49,0,3.11-2.39,8.33-18.37,8.33h-31.94v13h31.6c19.12,0,21.98,5.86,21.98,9.35,0,8.06-12.66,13.07-33.03,13.07s-36.43-3.61-48.01-10.72l-.48,14.32c12.56,6.74,28.76,10.3,46.92,10.3,30.3,0,50.66-10.16,50.66-25.28,0-7.91-2.09-13.9-12.3-17.44Z"/></g></g></g><g id="flipped"><g><g><path class="cls-1" d="M2567.27,2086.37c-60.67,0-119.57-21.52-165.87-60.59-45.75-38.61-76.77-92.13-87.35-150.69l-.34-1.86-1.89-.18c-63.42-6.03-122.11-35.35-165.28-82.55-43.45-47.51-67.38-109.16-67.38-173.59,0-48.26,13.46-95.32,38.91-136.09l1.27-2.03-1.98-1.35c-70.22-48.08-112.15-127.51-112.15-212.48s41.93-164.4,112.15-212.48l1.98-1.35-1.27-2.03c-25.46-40.77-38.91-87.83-38.91-136.09,0-64.43,23.93-126.08,67.38-173.59,43.17-47.21,101.87-76.52,165.28-82.56l1.89-.18,.34-1.86c10.58-58.57,41.6-112.08,87.35-150.69,46.29-39.07,105.2-60.59,165.87-60.59s119.57,21.52,165.87,60.59c45.75,38.61,76.77,92.13,87.35,150.69l.34,1.86,1.89,.18c63.42,6.03,122.11,35.35,165.28,82.56,43.45,47.51,67.38,109.16,67.38,173.59,0,48.26-13.46,95.32-38.91,136.09l-1.27,2.03,1.98,1.35c70.22,48.08,112.15,127.51,112.15,212.48s-41.93,164.4-112.15,212.48l-1.98,1.35,1.27,2.03c25.46,40.77,38.91,87.83,38.91,136.09,0,64.43-23.93,126.08-67.38,173.59-43.17,47.21-101.87,76.52-165.28,82.55l-1.89,.18-.34,1.86c-10.58,58.57-41.6,112.08-87.35,150.69-46.29,39.07-105.2,60.59-165.87,60.59Z"/><path class="cls-2" d="M2567.27,446.03c30.61,0,60.54,5.37,88.96,15.96,27.46,10.23,52.79,25.05,75.29,44.04,45.3,38.23,76.02,91.23,86.5,149.23l.67,3.73,3.77,.36c62.8,5.97,120.93,35.01,163.68,81.75,43.03,47.05,66.72,108.1,66.72,171.9,0,47.79-13.32,94.4-38.53,134.77l-2.54,4.07,3.96,2.71c33.53,22.95,61.43,53.96,80.68,89.65,19.88,36.85,30.38,78.61,30.38,120.76s-10.51,83.91-30.38,120.76c-19.25,35.7-47.15,66.7-80.68,89.65l-3.96,2.71,2.54,4.07c25.21,40.37,38.53,86.97,38.53,134.77,0,63.81-23.7,124.85-66.72,171.9-42.75,46.75-100.88,75.78-163.68,81.75l-3.77,.36-.67,3.73c-10.48,58-41.2,110.99-86.5,149.23-22.5,18.99-47.83,33.8-75.29,44.04-28.42,10.59-58.35,15.96-88.96,15.96s-60.54-5.37-88.96-15.96c-27.46-10.23-52.79-25.05-75.29-44.04-45.3-38.23-76.02-91.23-86.5-149.23l-.67-3.73-3.77-.36c-62.8-5.97-120.93-35.01-163.68-81.75-43.03-47.05-66.72-108.1-66.72-171.9,0-47.79,13.32-94.4,38.53-134.77l2.54-4.07-3.96-2.71c-33.53-22.95-61.43-53.96-80.68-89.65-19.88-36.85-30.38-78.61-30.38-120.76s10.51-83.91,30.38-120.76c19.25-35.7,47.15-66.7,80.68-89.65l3.96-2.71-2.54-4.07c-25.21-40.37-38.53-86.97-38.53-134.77,0-63.81,23.7-124.85,66.72-171.9,42.75-46.75,100.88-75.78,163.68-81.75l3.77-.36,.67-3.73c10.48-58,41.2-110.99,86.5-149.23,22.5-18.99,47.83-33.8,75.29-44.04,28.42-10.59,58.35-15.96,88.96-15.96m0-5c-127.63,0-233.76,92.02-255.67,213.33-131.81,12.54-234.92,123.54-234.92,258.63,0,50.46,14.4,97.55,39.29,137.42-68.37,46.81-113.24,125.43-113.24,214.54s44.87,167.73,113.24,214.54c-24.89,39.86-39.29,86.96-39.29,137.42,0,135.1,103.11,246.1,234.92,258.63,21.92,121.31,128.05,213.33,255.67,213.33s233.76-92.02,255.67-213.33c131.81-12.54,234.92-123.54,234.92-258.63,0-50.46-14.4-97.55-39.29-137.42,68.37-46.81,113.24-125.43,113.24-214.54s-44.87-167.73-113.24-214.54c24.89-39.86,39.29-86.96,39.29-137.42,0-135.1-103.11-246.1-234.92-258.63-21.92-121.31-128.05-213.33-255.67-213.33h0Z"/></g><path class="cls-2" d="M2592.01,596.74c10.74,9.33,22.71,23.07,22.71,39.62,0,14.79-6.34,29.41-14.79,42.97h-4.57c3.87-8.1,11.09-22.89,11.09-36.98,0-20.43-13.91-36.63-32.22-40.68v88.4c0,18.31-15.5,29.93-32.23,29.93-8.1,0-16.38-4.4-16.38-13.03,0-12.5,16.03-24.3,30.46-24.3,4.05,0,8.45,.88,11.09,2.29v-126.96h4.4c0,16.9,9.68,29.41,20.43,38.74Z"/></g></g></svg>