<?xml version="1.0" encoding="UTF-8"?><svg xmlns="http://www.w3.org/2000/svg" viewBox="0 0 5148 2436"><defs><style>.cls-1{fill:#fff;}.cls-2{fill:#ff5a28;}svg{height:100%}g{visibility:hidden}svg.default g#default,svg.default g#default *,svg.flipped g#flipped,svg.flipped g#flipped *,svg.happyNewYear g#happyNewYear,svg.happyNewYear g#happyNewYear *,svg.saeHaeBok g#saeHaeBok,svg.saeHaeBok g#saeHaeBok *{visibility:visible}</style></defs><g id="default"><path class="cls-2" d="M2576.19,707.94h-8c-16-221-139-330-275-310-145,21-246,178-235,408,17,350,268,802,505,1470h16c236-668,487-1120,505-1470,12-230-87-393-234-408-136-14-258,89-274,310Z"/></g><g id="saeHaeBok"><g><path class="cls-2" d="M2576.19,707.94h-8c-16-221-139-330-275-310-145,21-246,178-235,408,17,350,268,802,505,1470h16c236-668,487-1120,505-1470,12-230-87-393-234-408-136-14-258,89-274,310Z"/><g><rect x="2514.37" y="799.29" width="41.19" height="7.88"/><rect x="2546.88" y="847.98" width="8.36" height="58.32"/><path d="M2562.9,926.44h8.68v-8.72h48.58v6.98h8.68v-63.71h-65.93v65.45Zm36.59-41.66v-16.06h20.66v16.06h-20.66Zm20.66,7.72v17.33h-20.66v-17.33h20.66Zm-29.18,0v17.33h-19.39v-17.33h19.39Zm0-23.79v16.06h-19.39v-16.06h19.39Z"/><path d="M2516.47,915.12l.2-.56c4.61-12.78,6.85-30.21,6.85-53.28v-13.62h-8.36v13.62c0,22.94-1.68,36.46-6,48.21l-.12,.32,7.43,5.31Z"/><rect x="2562.58" y="798.66" width="69.1" height="7.88"/><path d="M2567.18,817.21v32.78h57.52v-32.78h-57.52Zm8.83,25.22v-17.49h39.85v17.49h-39.85Z"/><polygon points="2530.86 926.44 2539.7 926.44 2539.7 835.4 2559.52 835.4 2559.52 827.04 2510.24 827.04 2510.24 835.4 2530.86 835.4 2530.86 926.44"/><path d="M2483.24,1013.19h-66.91l.47-1.19c2.16-5.46,18.14-10.25,31.16-13.3,29.25-6.81,34.4-12.88,34.4-23.12,0-13.14-14.93-21.62-38.03-21.62-17.16,0-31.02,3.25-42.33,9.93l.51,12.29c10.41-6.55,24.69-10.01,41.43-10.01,13.82,0,23.46,3.91,23.46,9.52,0,3.91-2.52,6.02-29.24,12.83h0c-34.65,8.77-39.42,21.77-39.42,34.52v2.17h84.5v-12.01Z"/><path d="M2666.22,975.57c10.25-6.5,22.57-9.41,39.64-9.41,14.94,0,26.21,4.3,26.21,10.01,0,2.71-2.08,7.26-16,7.26h-27.81v11.32h27.52c16.66,0,19.14,5.1,19.14,8.14,0,7.02-11.02,11.38-28.77,11.38s-31.73-3.14-41.81-9.33l-.42,12.47c10.94,5.87,25.05,8.97,40.86,8.97,26.39,0,44.12-8.85,44.12-22.02,0-6.89-1.82-12.1-10.71-15.19l-1.92-.67,1.81-.93c7.36-3.78,7.97-9.19,7.97-13.96,0-11.52-16.77-19.56-40.78-19.56-15.2,0-27.74,2.92-39.39,9.17l.34,12.35Z"/><path d="M2844.64,1031.01l-56.3,149.2-2.11-1.41v-153.43h-28.86v248.44h6.33l76.71-204.1c.7-2.11,4.22-2.11,4.22,.7l-1.41,203.4c0,30.97-21.82,69.68-62.64,69.68-23.56,0-45.19-9.67-64.28-30.84,13.07-16.71,21.35-40.04,21.35-65.58,0-49.97-24.63-73.9-49.97-73.9-16.89,0-30.26,10.56-38,21.82l4.93,3.52c8.45-9.85,17.59-16.19,30.97-14.08,19.71,2.82,23.93,33.08,23.93,62.64,0,36.6-7.04,82.34-40.82,82.34-31.67,0-41.52-45.75-41.52-82.34,0-76.71,60.53-115.42,119.64-118.94v-8.45h-80.55l19.32-28.15v-66.16h-28.15v94.31h-70.38v9.15l107.68-.7v2.82c-62.64,23.23-96.42,65.45-96.42,116.13s29.56,91.49,70.38,91.49c16.94,0,32.72-8.57,44.9-22.6,20.73,25.85,47.06,38.79,74.04,38.79,55.6,0,87.97-33.78,87.97-89.38l.7-229.44c0-19-25.34-21.82-31.67-4.93Z"/><path d="M2565.26,1521.53c41.52-7.04,76.71-23.93,81.64-36.6,2.82-7.74-1.41-16.89-13.37-20.41-11.96-3.52-34.49-.7-61.23,4.22v-1.41c50.67-18.3,78.82-47.86,78.82-69.68,0-17.59-13.37-30.26-35.89-27.45-29.46,3.84-85.13,42.06-114.01,79.14v-99.82c34.24-11.47,53.46-41.33,53.46-84.16l.7-229.44c0-4.87-1.67-8.66-4.25-11.35,4.15-1.71,7.87-3.98,11.04-6.8,7.69-6.83,11.75-16.37,11.75-27.58s-4.06-20.75-11.75-27.58c-.92-.82-1.89-1.59-2.9-2.31,4.75,.71,9.6,1.08,14.54,1.08,3.09,0,6.14-.15,9.16-.43-1.93,.89-3.79,1.85-5.59,2.91l.51,12.29c10.41-6.55,24.69-10.01,41.43-10.01,13.82,0,23.46,3.91,23.46,9.52,0,3.91-2.52,6.02-29.24,12.83h0c-34.65,8.77-39.42,21.77-39.42,34.52v2.17h84.5v-12.01h-66.91l.47-1.19c2.16-5.46,18.14-10.25,31.16-13.3,29.25-6.81,34.4-12.88,34.4-23.12,0-13.14-14.93-21.62-38.03-21.62-3.19,0-6.27,.11-9.24,.34,36.02-14.56,61.5-49.88,61.5-91.06,0-54.13-44.04-98.17-98.17-98.17s-98.17,44.04-98.17,98.17c0,39.25,23.16,73.18,56.52,88.88-.52-.01-1.05-.03-1.58-.03-12.89,0-23.81,3.65-31.58,10.55-7.69,6.83-11.75,16.37-11.75,27.58s4.06,20.75,11.75,27.58c6.64,5.9,15.58,9.41,26.08,10.31-.53,.9-.99,1.87-1.39,2.91l-56.3,149.2-2.11-1.41v-153.43h-28.86v248.44h6.33l76.71-204.1c.7-2.11,4.22-2.11,4.22,.7l-1.41,203.4c0,30.97-21.82,69.68-62.64,69.68-24.63,0-47.15-10.56-66.86-33.78l-.22,.15c7.28-7.64,13.67-17.39,18.52-29.71,19.71-49.97-1.41-90.79-29.56-90.09-16.89,.7-36.6,11.96-54.19,44.34l21.11-209.03h-29.56l-25.34,240.7c-3.52,35.19-19,57.71-45.75,57.71-8.45,0-21.82-4.22-31.67-18.3l-4.93,2.11c9.15,19,26.04,28.15,46.45,28.15,30.26,0,54.19-23.93,64.75-63.34,8.45-30.97,28.15-67.56,46.45-67.56,16.89,0,28.15,36.6,18.3,70.38-10.56,36.6-38.71,54.19-61.93,54.19v5.63c19.04,.98,44.18-3.47,63.9-21.79,21.06,27.66,49.66,41.5,77.56,41.5,1.91,0,3.8-.05,5.66-.13v134.53h6.33c29.56-43.64,85.86-92.9,120.35-102.75,12.67-3.52,21.82,1.41,21.82,11.96,.7,26.04-33.78,58.41-91.49,78.82l1.41,7.74c33.78-9.85,58.41-12.67,74.6-9.85,10.56,2.11,11.96,9.15,4.22,16.19-15.48,14.08-57.71,33.08-109.79,33.78l-82.34,1.41v9.15l237.18-3.52v.7l-175.95,58.42,2.11,7.74c28.15-10.56,76.85-19.98,106.27-15.48,28.59,4.37,40.8,19.4,42.23,36.95,2.66,32.58-38.07,65.16-73.19,64.41l-.7,7.04c50.67,4.22,100.99-30.72,109.79-70.04,10.59-47.31-53.49-50.32-73.19-46.8l-.7-2.82,144.28-40.82v-9.85l-170.32,2.82v-2.82Zm8.56-749.34c50.2,0,91.05,40.84,91.05,91.05s-40.84,91.05-91.05,91.05-91.05-40.84-91.05-91.05,40.84-91.05,91.05-91.05Zm-73.56,218.03c0-15.81,11.91-26.02,30.34-26.02s30.34,10.46,30.34,26.02-12.48,26.02-30.34,26.02-30.34-10.46-30.34-26.02Z"/><rect x="2668.02" y="1346.29" width="28.86" height="142.87"/></g></g></g><g id="happyNewYear"><g><path class="cls-2" d="M2576.19,707.94h-8c-16-221-139-330-275-310-145,21-246,178-235,408,17,350,268,802,505,1470h16c236-668,487-1120,505-1470,12-230-87-393-234-408-136-14-258,89-274,310Z"/><g><rect x="2477.51" y="1168.66" width="64.01" height="11.09"/><path d="M2478.77,1266.44c0,34.27-2.27,56.95-9.58,76.86l10.58,7.56c7.81-21.67,10.84-50.15,10.84-84.42v-20.92h-11.84v20.92Z"/><path d="M2561.43,1197.14v50.65h89.97v-50.65h-89.97Zm77.37,40.07h-64.77v-29.23h64.77v29.23Z"/><path d="M2554.63,1369.26h12.35v-13.86h78.63v11.09h12.35v-99.8h-103.32v102.57Zm56.7-91.73h34.27v26.97h-34.27v-26.97Zm0,37.8h34.27v28.98h-34.27v-28.98Zm-44.35-37.8h32.26v26.97h-32.26v-26.97Zm0,37.8h32.26v28.98h-32.26v-28.98Z"/><rect x="2529.17" y="1246.03" width="11.84" height="91.23"/><polygon points="2470.96 1224.61 2503.72 1224.61 2503.72 1369.26 2516.32 1369.26 2516.32 1224.61 2547.82 1224.61 2547.82 1212.77 2470.96 1212.77 2470.96 1224.61"/><rect x="2554.12" y="1167.66" width="108.36" height="11.09"/><path d="M2428.35,956.76h-13.78l-3.44-3.44v-111.93l3.44-3.44h13.78v-3.44h-136.04v3.44h13.78l3.44,3.44v111.93l-3.44,3.44h-13.78v3.44h136.04v-3.44Zm-34.44-3.44l-3.44,3.44h-60.27l-3.44-3.44v-56.83h67.16v56.83Zm0-60.27h-67.16v-51.66l3.44-3.44h60.27l3.44,3.44v51.66Z"/><path d="M2480.18,917.15c-26.18,7.06-35.47,14.12-35.47,27.04s10.85,17.74,26.52,17.74c13.78,0,21.7-4.82,28.59-17.22h1.72v15.5h27.55v-3.44h-10.33l-3.44-3.44v-55.1c0-17.56-12.4-27.55-33.24-27.55-19.46,0-32.2,9.3-33.06,25.83l-.86,17.22,15.5-6.89v-13.78c0-12.05,7.23-18.94,18.08-18.94s18.08,8.61,18.08,24.11v13.78l-19.63,5.17Zm19.63,10.33c0,17.74-11.19,31-24.63,31-8.95,0-14.12-3.27-14.12-14.81,0-14.29,10.16-21.7,38.75-28.24v12.05Z"/><path d="M2798.4,984.31l43.57-106.77h10.85v-3.44h-103.32v3.44h12.05l37.88,93.33-4.82,11.71c-.86,2.24-2.07,3.44-4.31,3.44h-25.31l-3.44,17.22,12.05-.86c12.4-.86,19.8-5.85,24.8-18.08Zm-18.77-103.32l3.44-3.44h49.59l3.44,3.44-28.07,69.23h-1.72l-26.69-69.23Z"/><polygon points="2272.08 1003.25 2301.35 1003.25 2304.8 1006.69 2304.8 1094.52 2303.07 1094.52 2229.03 999.81 2196.31 999.81 2196.31 1003.25 2214.39 1003.25 2217.83 1006.69 2217.83 1118.63 2214.39 1122.07 2196.31 1122.07 2196.31 1125.51 2254.86 1125.51 2254.86 1122.07 2225.58 1122.07 2222.14 1118.63 2222.14 1023.91 2223.86 1023.91 2303.07 1125.51 2309.1 1125.51 2309.1 1006.69 2312.55 1003.25 2330.63 1003.25 2330.63 999.81 2272.08 999.81 2272.08 1003.25"/><path d="M2418.45,1085.91l-3.62-.69c-3.27,21.87-13.6,36.85-29.79,36.85-19.46,0-30.48-19.98-30.48-41.33,0-.52,0-2.24,.17-3.44h56.83l5.17-5.17c0-23.25-14.64-36.16-37.54-36.16-25.31,0-41.67,17.91-41.67,47.01,0,26.69,15.5,44.26,43.22,44.26,23.08,0,34.44-17.39,37.71-41.33Zm-38.75-46.49c11.88,0,19.8,13.6,19.8,31l-3.44,3.44h-41.16c1.89-19.98,12.57-34.44,24.8-34.44Z"/><path d="M2731.16,1122.07c-19.46,0-30.48-19.98-30.48-41.33,0-.52,0-2.24,.17-3.44h56.83l5.17-5.17c0-23.25-14.64-36.16-37.54-36.16-25.31,0-41.67,17.91-41.67,47.01,0,26.69,15.5,44.26,43.22,44.26,23.08,0,34.44-17.39,37.71-41.33l-3.62-.69c-3.27,21.87-13.6,36.85-29.79,36.85Zm-5.34-82.66c11.88,0,19.8,13.6,19.8,31l-3.44,3.44h-41.16c1.89-19.98,12.57-34.44,24.8-34.44Z"/><path d="M2852.38,1118.63v-55.1c0-17.56-12.4-27.55-33.24-27.55-19.46,0-32.2,9.3-33.06,25.83l-.86,17.22,15.5-6.89v-13.78c0-12.05,7.23-18.94,18.08-18.94s18.08,8.61,18.08,24.11v13.78l-19.63,5.17c-26.17,7.06-35.47,14.12-35.47,27.04s10.85,17.74,26.52,17.74c13.78,0,21.7-4.82,28.59-17.22h1.72v15.5h27.55v-3.44h-10.33l-3.44-3.44Zm-15.5-25.83c0,17.74-11.19,31-24.63,31-8.95,0-14.12-3.27-14.12-14.81,0-14.29,10.16-21.7,38.75-28.24v12.05Z"/><path d="M2929.01,1053.19h13.78l3.44-17.22-13.78,.86c-14.81,.86-21.18,12.4-25.83,26.69h-1.72v-27.55c-8.61,4.31-18.94,6.89-27.55,6.89v3.44h13.78v72.33l-3.44,3.44h-10.33v3.44h60.27v-3.44h-27.55l-3.44-3.44v-37.88c0-17.05,8.95-27.55,22.39-27.55Z"/><path d="M2404.22,1476.82c2.3-5.81,19.3-10.9,33.15-14.15,31.12-7.25,36.59-13.71,36.59-24.6,0-13.98-15.88-23.01-40.46-23.01-18.26,0-33,3.45-45.04,10.56l.54,13.08c11.07-6.97,26.27-10.65,44.08-10.65,14.7,0,24.96,4.16,24.96,10.12,0,4.16-2.68,6.41-31.11,13.65h0c-36.86,9.33-41.94,23.17-41.94,36.73v2.31h89.91v-12.78h-71.19l.5-1.27Z"/><path d="M2590.82,1476.82c2.3-5.81,19.3-10.9,33.15-14.15,31.12-7.25,36.59-13.71,36.59-24.6,0-13.98-15.88-23.01-40.46-23.01-.42,0-.82,.01-1.24,.01,61.19-20.07,105.51-77.71,105.51-145.53s-42.24-122.72-101.19-144.04h33.74v-3.44h-13.78l-3.44-3.44v-43.05l40.12-72.32h26.61v-3.44h-13.34s-14.21,0-14.21,0l-3.44-3.44v-42.36h2.76c6.37,4.99,14.81,7.92,23.76,7.92,23.94,0,42.36-20.84,42.36-45.63,0-26.86-16.53-45.63-40.3-45.63-12.23,0-23.76,5.17-28.59,13.78h-1.72v-13.78c-8.61,4.31-18.94,6.89-27.55,6.89v3.44h13.78v115.38l-3.44,3.44h-87.39s-.43,0-.43,0l-3.44-3.44v-42.36h2.76c6.37,4.99,14.81,7.92,23.76,7.92,23.94,0,42.36-20.84,42.36-45.63,0-26.86-16.53-45.63-40.3-45.63-12.23,0-23.76,5.17-28.59,13.78h-1.72v-13.78c-8.61,4.31-18.94,6.89-27.55,6.89v3.44h13.78v115.38l-3.44,3.44h-10.33v3.44h46.93l3.44,3.44,36.16,68.88v43.05l-3.44,3.44h-6.62c-13.1-3.66-26.91-5.63-41.17-5.63s-29.33,2.15-42.97,6.15l27.91-79.73h10.33v-3.44h-137.76v3.44h10.33l28.41,82.66h8.44l20.49-59.93h1.72l20.15,59.93h1.02c-58.94,21.32-101.18,77.83-101.18,144.04s41.97,122.37,100.62,143.84c-10.89,1.05-20.17,4.76-27.09,10.91-8.18,7.27-12.5,17.41-12.5,29.34s4.32,22.07,12.5,29.34c8.26,7.34,19.88,11.22,33.6,11.22s25.33-3.88,33.6-11.22c8.18-7.27,12.5-17.41,12.5-29.34s-4.32-22.07-12.5-29.34c-.96-.85-1.97-1.65-3.01-2.41,5.06,.51,10.2,.77,15.4,.77,3.43,0,6.83-.12,10.21-.35-2.21,1-4.35,2.1-6.4,3.31l.54,13.08c11.07-6.97,26.27-10.65,44.08-10.65,14.7,0,24.96,4.16,24.96,10.12,0,4.16-2.68,6.41-31.11,13.65h0c-36.86,9.33-41.94,23.17-41.94,36.73v2.31h89.91v-12.78h-71.19l.5-1.27Zm84.63-574.99c0-15.67,10.16-25.83,25.14-25.83,16.01,0,26.52,17.22,26.52,40.81,0,21.7-10.33,39.95-27.21,39.95-14.98,0-24.45-9.47-24.45-27.55v-27.38Zm-110.21,0c0-15.67,10.16-25.83,25.14-25.83,16.01,0,26.52,17.22,26.52,40.81,0,21.7-10.33,39.95-27.21,39.95-14.98,0-24.45-9.47-24.45-27.55v-27.38Zm40.04,104.87l3.44-3.44h37.45s23.86,0,23.86,0l3.44,3.44-34.96,61.99h-1.72l-31.51-61.99Zm-126.74,98.67h-1.72l-20.49-59.07,3.44-3.44h39.95l-21.18,62.51Zm29.28-62.51h39.61l3.44,3.44-20.84,59.07h-1.72l-20.49-62.51Zm17.47,438.47c-19.31,0-32.28-11.12-32.28-27.68s12.67-27.68,32.28-27.68,32.28,11.12,32.28,27.68-13.27,27.68-32.28,27.68Zm-101.57-211.77c0-81.36,66.19-147.55,147.55-147.55s147.55,66.19,147.55,147.55-66.19,147.55-147.55,147.55-147.55-66.19-147.55-147.55Z"/><path d="M2746.15,1452.53l-2.05-.71,1.93-.99c7.83-4.02,8.48-9.77,8.48-14.85,0-12.25-17.84-20.81-43.39-20.81-16.18,0-29.51,3.1-41.91,9.75l.36,13.14c10.91-6.91,24.01-10.01,42.18-10.01,15.9,0,27.89,4.58,27.89,10.65,0,2.88-2.21,7.72-17.02,7.72h-29.59v12.05h29.28c17.72,0,20.37,5.43,20.37,8.66,0,7.47-11.73,12.11-30.61,12.11s-33.76-3.34-44.49-9.93l-.45,13.27c11.63,6.25,26.65,9.54,43.47,9.54,28.08,0,46.94-9.41,46.94-23.42,0-7.33-1.94-12.88-11.4-16.16Z"/></g></g></g><g id="flipped"><g><g><path class="cls-1" d="M2576.19,707.94h-8c-16-221-139-330-275-310-145,21-246,178-235,408,17,350,268,802,505,1470h16c236-668,487-1120,505-1470,12-230-87-393-234-408-136-14-258,89-274,310Z"/><path class="cls-2" d="M2580.96,2278.44h-19.53l-.59-1.66c-82.13-231.49-166.6-438.65-241.13-621.42-141.29-346.5-252.89-620.19-264.01-849.3-5.33-111.4,15.19-209.53,59.35-283.77,21.16-35.58,47.15-64.55,77.26-86.11,30.36-21.75,64.18-35.44,100.54-40.71,59-8.68,114.71,6.43,161.13,43.67,32.25,25.88,58.64,61.34,78.43,105.39,20.68,46.02,33.5,100.15,38.12,160.91h3.36c4.5-59.21,16.78-111.91,36.49-156.66,18.81-42.69,44.04-77.5,75.01-103.48,46.43-38.95,103.51-56.18,165.08-49.85,36.69,3.74,70.83,16.59,101.45,38.18,30.06,21.19,55.99,50.27,77.08,86.42,21.22,36.39,36.98,79.02,46.84,126.71,10.17,49.19,13.83,102.79,10.88,159.31-11.73,228.03-122.49,500.04-262.71,844.42-74.96,184.1-159.92,392.76-242.43,626.29l-.59,1.67Zm-16-5h12.47c82.36-232.97,167.12-441.13,241.92-624.84,140.05-343.94,250.66-615.6,262.35-842.79,2.93-56.09-.7-109.26-10.78-158.04-9.74-47.15-25.31-89.28-46.26-125.2-20.72-35.53-46.17-64.08-75.64-84.86-29.91-21.09-63.25-33.63-99.08-37.29-60.19-6.2-115.98,10.65-161.35,48.7-30.37,25.48-55.15,59.68-73.65,101.66-19.74,44.81-31.94,97.75-36.25,157.33l-.17,2.32h-12.65l-.17-2.32c-4.42-61.12-17.16-115.47-37.86-161.55-19.46-43.32-45.37-78.15-77-103.54-45.3-36.36-99.69-51.09-157.28-42.63-35.56,5.15-68.64,18.55-98.35,39.82-29.54,21.16-55.07,49.63-75.87,84.6-43.65,73.4-63.93,170.56-58.65,280.98,11.09,228.25,122.54,501.59,263.65,847.65,74.37,182.39,158.63,389.04,240.62,619.97Z"/></g><path class="cls-2" d="M2609.76,1745.74c10.74,9.33,22.71,23.07,22.71,39.62,0,14.79-6.34,29.41-14.79,42.97h-4.57c3.87-8.1,11.09-22.89,11.09-36.98,0-20.43-13.91-36.63-32.22-40.68v88.4c0,18.31-15.5,29.93-32.23,29.93-8.1,0-16.38-4.4-16.38-13.03,0-12.5,16.03-24.3,30.46-24.3,4.05,0,8.45,.88,11.09,2.29v-126.96h4.4c0,16.9,9.68,29.41,20.43,38.74Z"/></g></g></svg>