<?xml version="1.0" encoding="UTF-8"?><svg id="_레이어_2" xmlns="http://www.w3.org/2000/svg" viewBox="0 0 2034 2034"><defs><style>.cls-1{fill:#ff5a28;}</style></defs><g><circle class="cls-1" cx="991.79" cy="988.21" r="567.12"/><path d="M991.79,446.19c299.35,0,542.02,242.67,542.02,542.02s-242.67,542.02-542.02,542.02-542.02-242.67-542.02-542.02S692.44,446.19,991.79,446.19m0-50.19c-158.19,0-306.9,61.6-418.76,173.45-111.85,111.85-173.45,260.57-173.45,418.75s61.6,306.9,173.45,418.75c111.85,111.86,260.57,173.45,418.76,173.45s306.9-61.6,418.75-173.45c111.85-111.85,173.45-260.57,173.45-418.75s-61.6-306.9-173.45-418.75c-111.85-111.86-260.57-173.45-418.75-173.45h0Z"/></g><path d="M963.01,1309.41c-16.18,0-31.4-7.81-40.84-21.02l-225.84-316.18c-16.11-22.55-10.89-53.9,11.67-70.01,22.55-16.1,53.9-10.89,70.01,11.67l182.6,255.65,276.24-434.09c14.88-23.38,45.9-30.27,69.28-15.39,23.39,14.88,30.28,45.9,15.4,69.29l-316.18,496.85c-8.96,14.07-24.32,22.78-41,23.22-.45,.01-.9,.02-1.35,.02Z"/></svg>