<?xml version="1.0" encoding="UTF-8"?><svg id="_레이어_2" xmlns="http://www.w3.org/2000/svg" viewBox="0 0 2034 2034"><defs><style>.cls-1{fill:#ff5a28;}</style></defs><g><circle class="cls-1" cx="991.79" cy="988.21" r="567.12"/><path d="M991.79,446.19c299.35,0,542.02,242.67,542.02,542.02s-242.67,542.02-542.02,542.02-542.02-242.67-542.02-542.02S692.44,446.19,991.79,446.19m0-50.19c-158.19,0-306.9,61.6-418.76,173.45-111.85,111.85-173.45,260.57-173.45,418.75s61.6,306.9,173.45,418.75c111.85,111.86,260.57,173.45,418.76,173.45s306.9-61.6,418.75-173.45c111.85-111.85,173.45-260.57,173.45-418.75s-61.6-306.9-173.45-418.75c-111.85-111.86-260.57-173.45-418.75-173.45h0Z"/></g><path d="M1266.3,935.36l-350.14-247.19c-44.6-31.49-106.16,.41-106.16,55v494.39c0,54.59,61.56,86.49,106.16,55l350.14-247.19c38-26.82,38-83.18,0-110Z"/></svg>