<?xml version="1.0" encoding="UTF-8"?><svg id="_레이어_1" xmlns="http://www.w3.org/2000/svg" viewBox="0 0 1125 2436"><defs><style>.cls-1{fill:#fff;}</style></defs><path d="M540.12,734.43h-7.32c-16.47-261.76-146.44-347.8-261.76-340.48-146.44,9.15-239.8,197.7-226.98,408.21,18.31,320.34,228.81,801.77,485.09,1469.9h14.64c256.27-668.14,466.78-1149.56,485.09-1469.9,12.81-210.51-80.54-399.05-226.98-408.21-115.32-7.32-245.29,78.71-261.76,340.48Z"/><g><g><path class="cls-1" d="M457.45,1269.07c0,33.54-2.96,61.4-10.6,82.61l-10.36-7.4c7.15-19.48,9.37-41.68,9.37-75.21v-20.47h11.59v20.47Zm12.82,100.61v-141.55h-32.06v-11.59h75.21v11.59h-30.82v141.55h-12.33Zm-25.65-185.44v-10.85h62.64v10.85h-62.64Zm50.55,154.12v-89.27h11.59v89.27h-11.59Zm24.41-155.11v-10.85h106.04v10.85h-106.04Zm89.51,183.72v-10.85h-76.94v13.56h-12.08v-100.36h101.1v97.65h-12.08Zm-82.36-116.15v-49.57h88.04v49.57h-88.04Zm5.42,55.48h31.56v-26.38h-31.56v26.38Zm0,38.96h31.56v-28.36h-31.56v28.36Zm6.91-104.8h63.38v-28.6h-63.38v28.6Zm36.5,39.46v26.38h33.54v-26.38h-33.54Zm0,65.35h33.54v-28.36h-33.54v28.36Z"/><path class="cls-1" d="M536.37,1422.22c-82.77,0-150.1-67.34-150.1-150.1s67.34-150.1,150.1-150.1,150.1,67.34,150.1,150.1-67.34,150.1-150.1,150.1Zm0-294.21c-79.46,0-144.1,64.64-144.1,144.1s64.64,144.1,144.1,144.1,144.1-64.64,144.1-144.1-64.64-144.1-144.1-144.1Z"/></g><g><path class="cls-1" d="M458.02,1429.58c0-5.79-4.71-8.76-14.19-8.76-10.79,0-17.67,3.69-17.67,12.09h-9.99c.72-12.82,11.51-18.97,27.88-18.97,15.06,0,23.97,5.14,23.97,15.14,0,20.71-39.11,16.29-41.93,29.91h41.57v7.6h-52.94v-4.05c0-22.88,43.31-17.38,43.31-32.95Z"/><path class="cls-1" d="M476.92,1440.88c0-16.08,10.14-27.01,27.95-27.01s28.03,11.01,28.03,27.01-10.21,27.16-28.03,27.16-27.95-11.08-27.95-27.16Zm27.95,18.83c11.08,0,17.74-7.03,17.74-18.83s-6.66-18.69-17.74-18.69-17.67,6.88-17.67,18.69,6.66,18.83,17.67,18.83Z"/><path class="cls-1" d="M584.1,1429.58c0-5.79-4.71-8.76-14.19-8.76-10.79,0-17.67,3.69-17.67,12.09h-9.99c.72-12.82,11.51-18.97,27.88-18.97,15.06,0,23.97,5.14,23.97,15.14,0,20.71-39.11,16.29-41.93,29.91h41.57v7.6h-52.94v-4.05c0-22.88,43.31-17.38,43.31-32.95Z"/><path class="cls-1" d="M604.08,1449.28h9.7c0,8.25,7.46,11.51,18.68,11.51,10.21,0,16.08-2.75,16.08-9.41,0-6.16-4.78-8.26-14.7-8.26h-6.45v-5.87h6.16c9.56-.07,14.27-2.32,14.27-8.11s-5-8.33-15.71-8.33c-12.31,0-18.32,3.62-18.32,11.73h-9.34c.65-12.31,9.99-18.61,28.03-18.61s25.27,5.14,25.27,14.34c0,6.3-3.19,9.99-10.07,11.8,7.31,1.74,10.79,5.65,10.79,12.17,0,9.99-8.33,15.79-26.29,15.79s-27.52-6.23-28.1-18.76Z"/></g><g><path class="cls-1" d="M263.41,969.41v-3.37h13.48l3.37-3.37v-109.53l-3.37-3.37h-13.48v-3.37h133.12v3.37h-13.48l-3.37,3.37v109.53l3.37,3.37h13.48v3.37h-133.12Zm33.7-65.72h65.72v-50.55l-3.37-3.37h-58.98l-3.37,3.37v50.55Zm3.37,62.35h58.98l3.37-3.37v-55.61h-65.72v55.61l3.37,3.37Z"/><path class="cls-1" d="M412.53,953.74c0-12.64,9.1-19.55,34.71-26.45l19.21-5.06v-13.48c0-15.17-6.74-23.59-17.69-23.59s-17.69,6.74-17.69,18.54v13.48l-15.17,6.74,.84-16.85c.84-16.18,13.31-25.28,32.35-25.28,20.39,0,32.52,9.77,32.52,26.96v53.92l3.37,3.37h10.11v3.37h-26.96v-15.17h-1.69c-6.74,12.13-14.49,16.85-27.97,16.85-15.33,0-25.95-5.06-25.95-17.36Zm53.92-16.34v-11.79c-27.97,6.4-37.91,13.65-37.91,27.63,0,11.29,5.06,14.49,13.82,14.49,13.14,0,24.1-12.97,24.1-30.33Z"/><path class="cls-1" d="M501.83,1011.54v-3.37h10.11l3.37-3.37v-112.9h-13.48v-3.37c8.42,0,18.54-2.53,26.96-6.74v13.48h1.69c4.72-8.43,16.01-13.48,27.97-13.48,23.25,0,39.43,18.37,39.43,44.65,0,24.26-18.03,44.65-41.45,44.65-8.76,0-17.02-2.86-23.25-7.75h-2.7v41.45l3.37,3.37h26.96v3.37h-58.98Zm79.2-84.59c0-23.08-10.28-39.94-25.95-39.94-14.66,0-24.6,9.94-24.6,25.28v26.79c0,17.69,9.27,26.96,23.93,26.96,16.51,0,26.62-17.86,26.62-39.09Z"/><path class="cls-1" d="M609.67,1011.54v-3.37h10.11l3.37-3.37v-112.9h-13.48v-3.37c8.42,0,18.54-2.53,26.96-6.74v13.48h1.69c4.72-8.43,16.01-13.48,27.97-13.48,23.25,0,39.43,18.37,39.43,44.65,0,24.26-18.03,44.65-41.45,44.65-8.76,0-17.02-2.86-23.25-7.75h-2.7v41.45l3.37,3.37h26.96v3.37h-58.98Zm79.2-84.59c0-23.08-10.28-39.94-25.95-39.94-14.66,0-24.6,9.94-24.6,25.28v26.79c0,17.69,9.27,26.96,23.93,26.96,16.51,0,26.62-17.86,26.62-39.09Z"/><path class="cls-1" d="M811.87,885.16v3.37h-10.62l-42.63,104.47c-4.89,11.96-12.13,16.85-24.26,17.69l-11.79,.84,3.37-16.85h24.77c2.19,0,3.37-1.18,4.21-3.37l4.72-11.46-37.07-91.33h-11.8v-3.37h101.1Zm-43.81,74.48l27.47-67.74-3.37-3.37h-48.53l-3.37,3.37,26.12,67.74h1.68Z"/><path class="cls-1" d="M169.47,1131.17v-3.37h17.69l3.37-3.37v-109.53l-3.37-3.37h-17.69v-3.37h32.02l72.46,92.68h1.68v-85.94l-3.37-3.37h-28.65v-3.37h57.29v3.37h-17.69l-3.37,3.37v116.27h-5.9l-77.51-99.42h-1.68v92.68l3.37,3.37h28.65v3.37h-57.29Z"/><path class="cls-1" d="M307.64,1089.55c0-28.48,16.01-46,40.78-46,22.41,0,36.73,12.64,36.73,35.39l-5.06,5.06h-55.61c-.17,1.18-.17,2.86-.17,3.37,0,20.89,10.78,40.44,29.83,40.44,15.84,0,25.95-14.66,29.15-36.06l3.54,.67c-3.2,23.42-14.32,40.44-36.9,40.44-27.13,0-42.29-17.19-42.29-43.31Zm57.29-8.93l3.37-3.37c0-17.02-7.75-30.33-19.38-30.33s-22.41,14.15-24.26,33.7h40.27Z"/><path class="cls-1" d="M434.85,1131.17l-27.8-80.88h-10.11v-3.37h134.8v3.37h-10.11l-28.31,80.88h-8.76l-19.71-58.64h-1.69l-20.05,58.64h-8.26Zm9.1-19.71h1.69l20.73-61.17h-39.09l-3.37,3.37,20.05,57.8Zm50.38,0h1.68l20.39-57.8-3.37-3.37h-38.76l20.05,61.17Z"/><path class="cls-1" d="M569.65,1131.17v-3.37h13.48l3.37-3.37v-42.13l-35.39-67.4-3.37-3.37h-13.48v-3.37h121.32v3.37h-12.97l-39.26,70.77v42.13l3.37,3.37h13.48v3.37h-50.55Zm30.84-55.61h1.68l34.21-60.66-3.37-3.37h-59.99l-3.37,3.37,30.84,60.66Z"/><path class="cls-1" d="M646.32,1089.55c0-28.48,16.01-46,40.78-46,22.41,0,36.73,12.64,36.73,35.39l-5.05,5.06h-55.61c-.17,1.18-.17,2.86-.17,3.37,0,20.89,10.78,40.44,29.83,40.44,15.84,0,25.95-14.66,29.15-36.06l3.54,.67c-3.2,23.42-14.32,40.44-36.9,40.44-27.13,0-42.29-17.19-42.29-43.31Zm57.29-8.93l3.37-3.37c0-17.02-7.75-30.33-19.38-30.33s-22.41,14.15-24.26,33.7h40.27Z"/><path class="cls-1" d="M742.36,1115.5c0-12.64,9.1-19.55,34.71-26.45l19.21-5.06v-13.48c0-15.17-6.74-23.59-17.69-23.59s-17.69,6.74-17.69,18.54v13.48l-15.17,6.74,.84-16.85c.84-16.18,13.31-25.28,32.35-25.28,20.39,0,32.52,9.77,32.52,26.96v53.92l3.37,3.37h10.11v3.37h-26.96v-15.17h-1.69c-6.74,12.13-14.49,16.85-27.97,16.85-15.33,0-25.95-5.06-25.95-17.36Zm53.92-16.34v-11.79c-27.97,6.4-37.91,13.65-37.91,27.63,0,11.29,5.06,14.49,13.82,14.49,13.14,0,24.1-12.97,24.1-30.33Z"/><path class="cls-1" d="M835.88,1131.17v-3.37h10.11l3.37-3.37v-70.77h-13.48v-3.37c8.42,0,18.54-2.53,26.96-6.74v26.96h1.68c4.55-13.99,10.78-25.28,25.28-26.12l13.48-.84-3.37,16.85h-13.48c-13.14,0-21.91,10.28-21.91,26.96v37.07l3.37,3.37h26.96v3.37h-58.98Z"/></g></g></svg>