<?xml version="1.0" encoding="UTF-8"?><svg id="_레이어_1" xmlns="http://www.w3.org/2000/svg" viewBox="0 0 1125 2436"><defs><style>.cls-1{fill:#d8d8d8;}</style></defs><path class="cls-1" d="M596.81,1224.69c387.61,140.81,384.31,736.24,384.31,736.24h0c63.97,0,115.83,51.86,115.83,115.83h0c0,64.61-31.2,104.25-83.78,141.8l-66.37,47.41v112.73H258.56c12.83-44.94,23.99-81.47,81.73-108.02l-195.65-457.64c-50.62-118.39-51.51-252.16-2.49-371.22l40.81-99.11c40.65-98.73,47.21-208.19,18.62-311.06h0s121.47-137.28,121.47-261.52-76.96-183.55-76.96-292.41c0-100.4,47.82-172.01,97.41-214.55,26.52-22.75,67.5-4.01,67.5,30.94v476.02s3.64,0,3.64,0V294.1c0-34.94,40.98-53.69,67.5-30.94,49.59,42.55,97.41,114.15,97.41,214.55,0,117.06-76.96,164.56-76.96,292.41,0,124.24,121.47,261.52,121.47,261.52l-44.1,158.73,16.84,34.32h0Z"/><g><path d="M463.51,2211.36v-2.25h9.01l2.25-2.25v-73.2l-2.25-2.25h-9.01v-2.25h88.96v2.25h-9.01l-2.25,2.25v73.2l2.25,2.25h9.01v2.25h-88.96Zm22.52-43.92h43.92v-33.78l-2.25-2.25h-39.41l-2.25,2.25v33.78Zm2.25,41.67h39.41l2.25-2.25v-37.16h-43.92v37.16l2.25,2.25Z"/><path d="M563.17,2200.89c0-8.45,6.08-13.06,23.2-17.68l12.84-3.38v-9.01c0-10.14-4.5-15.77-11.82-15.77s-11.82,4.5-11.82,12.39v9.01l-10.13,4.5,.56-11.26c.56-10.81,8.9-16.89,21.62-16.89,13.63,0,21.73,6.53,21.73,18.02v36.04l2.25,2.25h6.76v2.25h-18.02v-10.13h-1.13c-4.5,8.11-9.68,11.26-18.69,11.26-10.25,0-17.34-3.38-17.34-11.6Zm36.04-10.92v-7.88c-18.69,4.28-25.34,9.12-25.34,18.47,0,7.54,3.38,9.68,9.23,9.68,8.78,0,16.1-8.67,16.1-20.27Z"/><path d="M622.86,2239.51v-2.25h6.76l2.25-2.25v-75.45h-9.01v-2.25c5.63,0,12.39-1.69,18.02-4.5v9.01h1.13c3.15-5.63,10.7-9.01,18.69-9.01,15.54,0,26.35,12.27,26.35,29.84,0,16.22-12.05,29.84-27.7,29.84-5.86,0-11.37-1.91-15.54-5.18h-1.8v27.7l2.25,2.25h18.02v2.25h-39.41Zm52.93-56.53c0-15.43-6.87-26.69-17.34-26.69-9.8,0-16.44,6.64-16.44,16.89v17.91c0,11.82,6.19,18.02,15.99,18.02,11.04,0,17.79-11.94,17.79-26.13Z"/><path d="M694.93,2239.51v-2.25h6.76l2.25-2.25v-75.45h-9.01v-2.25c5.63,0,12.39-1.69,18.02-4.5v9.01h1.13c3.15-5.63,10.7-9.01,18.69-9.01,15.54,0,26.35,12.27,26.35,29.84,0,16.22-12.05,29.84-27.7,29.84-5.86,0-11.37-1.91-15.54-5.18h-1.8v27.7l2.25,2.25h18.02v2.25h-39.41Zm52.93-56.53c0-15.43-6.87-26.69-17.34-26.69-9.8,0-16.44,6.64-16.44,16.89v17.91c0,11.82,6.19,18.02,15.99,18.02,11.04,0,17.79-11.94,17.79-26.13Z"/><path d="M830.07,2155.05v2.25h-7.09l-28.49,69.82c-3.27,8-8.11,11.26-16.22,11.82l-7.88,.56,2.25-11.26h16.55c1.46,0,2.25-.79,2.82-2.25l3.15-7.66-24.77-61.03h-7.88v-2.25h67.57Zm-29.28,49.77l18.36-45.27-2.25-2.25h-32.43l-2.25,2.25,17.45,45.27h1.13Z"/><path d="M400.73,2319.47v-2.25h11.82l2.25-2.25v-73.2l-2.25-2.25h-11.82v-2.25h21.4l48.42,61.94h1.13v-57.43l-2.25-2.25h-19.14v-2.25h38.29v2.25h-11.82l-2.25,2.25v77.7h-3.94l-51.8-66.44h-1.13v61.93l2.25,2.25h19.14v2.25h-38.29Z"/><path d="M493.07,2291.65c0-19.03,10.7-30.74,27.25-30.74,14.98,0,24.55,8.45,24.55,23.65l-3.38,3.38h-37.16c-.11,.79-.11,1.91-.11,2.25,0,13.96,7.21,27.03,19.93,27.03,10.58,0,17.34-9.8,19.48-24.1l2.36,.45c-2.14,15.65-9.57,27.03-24.66,27.03-18.13,0-28.27-11.49-28.27-28.94Zm38.29-5.97l2.25-2.25c0-11.37-5.18-20.27-12.95-20.27s-14.98,9.46-16.22,22.52h26.91Z"/><path d="M578.09,2319.47l-18.58-54.05h-6.76v-2.25h90.09v2.25h-6.76l-18.92,54.05h-5.86l-13.18-39.19h-1.13l-13.4,39.19h-5.52Zm6.08-13.18h1.13l13.85-40.88h-26.13l-2.25,2.25,13.4,38.62Zm33.67,0h1.13l13.63-38.62-2.25-2.25h-25.9l13.4,40.88Z"/><path d="M668.19,2319.47v-2.25h9.01l2.25-2.25v-28.15l-23.65-45.04-2.25-2.25h-9.01v-2.25h81.08v2.25h-8.67l-26.24,47.3v28.15l2.25,2.25h9.01v2.25h-33.78Zm20.61-37.16h1.13l22.86-40.54-2.25-2.25h-40.09l-2.25,2.25,20.61,40.54Z"/><path d="M719.43,2291.65c0-19.03,10.7-30.74,27.25-30.74,14.98,0,24.55,8.45,24.55,23.65l-3.38,3.38h-37.16c-.11,.79-.11,1.91-.11,2.25,0,13.96,7.21,27.03,19.93,27.03,10.58,0,17.34-9.8,19.48-24.1l2.37,.45c-2.14,15.65-9.57,27.03-24.66,27.03-18.13,0-28.26-11.49-28.26-28.94Zm38.29-5.97l2.25-2.25c0-11.37-5.18-20.27-12.95-20.27s-14.98,9.46-16.22,22.52h26.91Z"/><path d="M783.62,2309c0-8.45,6.08-13.06,23.2-17.68l12.84-3.38v-9.01c0-10.13-4.5-15.76-11.82-15.76s-11.82,4.5-11.82,12.39v9.01l-10.13,4.5,.56-11.26c.56-10.81,8.9-16.89,21.62-16.89,13.63,0,21.73,6.53,21.73,18.02v36.04l2.25,2.25h6.76v2.25h-18.02v-10.13h-1.13c-4.5,8.11-9.68,11.26-18.69,11.26-10.25,0-17.34-3.38-17.34-11.6Zm36.04-10.92v-7.88c-18.69,4.28-25.34,9.12-25.34,18.47,0,7.54,3.38,9.68,9.23,9.68,8.78,0,16.1-8.67,16.1-20.27Z"/><path d="M846.12,2319.47v-2.25h6.76l2.25-2.25v-47.3h-9.01v-2.25c5.63,0,12.39-1.69,18.02-4.5v18.02h1.13c3.04-9.35,7.21-16.89,16.89-17.45l9.01-.56-2.25,11.26h-9.01c-8.78,0-14.64,6.87-14.64,18.02v24.77l2.25,2.25h18.02v2.25h-39.41Z"/></g></svg>