<?xml version="1.0" encoding="UTF-8"?><svg id="_레이어_1" xmlns="http://www.w3.org/2000/svg" viewBox="0 0 1125 2436"><defs><style>.cls-1{fill:#ff3b6a;}</style></defs><path class="cls-1" d="M1082,1312c0-82.38-32.71-157.11-85.84-211.95,27.75-45.93,43.73-99.77,43.73-157.34,0-122.25-72.01-227.66-175.92-276.18-21.39-147.33-148.2-260.5-301.47-260.5s-280.07,113.17-301.47,260.5c-103.91,48.52-175.92,153.93-175.92,276.18,0,57.58,15.98,111.42,43.73,157.34-53.13,54.84-85.84,129.57-85.84,211.95s32.71,157.11,85.84,211.95c-27.75,45.93-43.73,99.77-43.73,157.34,0,122.25,72.01,227.66,175.92,276.18,21.39,147.33,148.2,260.5,301.47,260.5s280.07-113.17,301.47-260.5c103.91-48.52,175.92-153.93,175.92-276.18,0-57.58-15.98-111.42-43.73-157.34,53.13-54.84,85.84-129.57,85.84-211.95Z"/><g><g><path d="M477.31,1437.85c0,36.99-3.26,67.72-11.7,91.12l-11.42-8.16c7.89-21.49,10.34-45.97,10.34-82.96v-22.58h12.78v22.58Zm14.14,110.97v-156.12h-35.36v-12.78h82.96v12.78h-34v156.12h-13.6Zm-28.29-204.54v-11.97h69.08v11.97h-69.08Zm55.76,169.99v-98.46h12.78v98.46h-12.78Zm26.93-171.08v-11.97h116.96v11.97h-116.96Zm98.73,202.63v-11.97h-84.86v14.96h-13.33v-110.7h111.51v107.71h-13.33Zm-90.84-128.11v-54.67h97.1v54.67h-97.1Zm5.98,61.2h34.81v-29.1h-34.81v29.1Zm0,42.97h34.81v-31.28h-34.81v31.28Zm7.62-115.59h69.9v-31.55h-69.9v31.55Zm40.25,43.52v29.1h36.99v-29.1h-36.99Zm0,72.08h36.99v-31.28h-36.99v31.28Z"/><path d="M564.36,1606.45c-91.12,0-165.25-74.13-165.25-165.25s74.13-165.25,165.25-165.25,165.25,74.13,165.25,165.25-74.13,165.25-165.25,165.25Zm0-324.5c-87.81,0-159.25,71.44-159.25,159.25s71.44,159.25,159.25,159.25,159.25-71.44,159.25-159.25-71.44-159.25-159.25-159.25Z"/></g><g><path d="M477.93,1614.88c0-6.39-5.19-9.66-15.65-9.66-11.9,0-19.49,4.07-19.49,13.34h-11.02c.8-14.14,12.7-20.92,30.75-20.92,16.61,0,26.44,5.67,26.44,16.69,0,22.84-43.13,17.97-46.24,32.98h45.84v8.39h-58.38v-4.47c0-25.24,47.76-19.17,47.76-36.34Z"/><path d="M498.79,1627.34c0-17.73,11.18-29.79,30.83-29.79s30.91,12.14,30.91,29.79-11.26,29.95-30.91,29.95-30.83-12.22-30.83-29.95Zm30.83,20.76c12.22,0,19.57-7.75,19.57-20.76s-7.35-20.61-19.57-20.61-19.49,7.59-19.49,20.61,7.35,20.76,19.49,20.76Z"/><path d="M616.99,1614.88c0-6.39-5.19-9.66-15.65-9.66-11.9,0-19.49,4.07-19.49,13.34h-11.02c.8-14.14,12.7-20.92,30.75-20.92,16.61,0,26.44,5.67,26.44,16.69,0,22.84-43.13,17.97-46.24,32.98h45.84v8.39h-58.38v-4.47c0-25.24,47.76-19.17,47.76-36.34Z"/><path d="M639.04,1636.61h10.7c0,9.1,8.23,12.7,20.6,12.7,11.26,0,17.73-3.04,17.73-10.38,0-6.79-5.27-9.1-16.21-9.1h-7.11v-6.47h6.79c10.54-.08,15.73-2.56,15.73-8.95s-5.51-9.18-17.33-9.18c-13.58,0-20.21,3.99-20.21,12.94h-10.3c.72-13.58,11.02-20.53,30.91-20.53s27.87,5.67,27.87,15.81c0,6.95-3.51,11.02-11.1,13.02,8.07,1.92,11.9,6.23,11.9,13.42,0,11.02-9.18,17.41-28.99,17.41s-30.35-6.87-30.99-20.69Z"/></g><g><path d="M263.29,1107.33v-3.72h14.87l3.72-3.72v-120.8l-3.72-3.72h-14.87v-3.72h146.82v3.72h-14.87l-3.72,3.72v120.8l3.72,3.72h14.87v3.72h-146.82Zm37.17-72.48h72.48v-55.76l-3.72-3.72h-65.05l-3.72,3.72v55.76Zm3.72,68.77h65.05l3.72-3.72v-61.33h-72.48v61.33l3.72,3.72Z"/><path d="M427.76,1090.05c0-13.94,10.04-21.56,38.29-29.18l21.19-5.58v-14.87c0-16.73-7.43-26.02-19.51-26.02s-19.51,7.43-19.51,20.44v14.87l-16.73,7.43,.93-18.58c.93-17.84,14.68-27.88,35.68-27.88,22.49,0,35.87,10.78,35.87,29.74v59.47l3.72,3.72h11.15v3.72h-29.74v-16.73h-1.86c-7.43,13.38-15.98,18.58-30.85,18.58-16.91,0-28.62-5.58-28.62-19.14Zm59.47-18.03v-13.01c-30.85,7.06-41.82,15.05-41.82,30.48,0,12.45,5.58,15.98,15.24,15.98,14.5,0,26.58-14.31,26.58-33.45Z"/><path d="M526.26,1153.79v-3.72h11.15l3.72-3.72v-124.52h-14.87v-3.72c9.29,0,20.44-2.79,29.74-7.43v14.87h1.86c5.2-9.29,17.66-14.87,30.85-14.87,25.65,0,43.49,20.26,43.49,49.25,0,26.76-19.89,49.25-45.72,49.25-9.67,0-18.77-3.16-25.65-8.55h-2.97v45.72l3.72,3.72h29.74v3.72h-65.05Zm87.35-93.3c0-25.46-11.34-44.05-28.62-44.05-16.17,0-27.13,10.97-27.13,27.88v29.55c0,19.51,10.22,29.74,26.39,29.74,18.21,0,29.36-19.7,29.36-43.12Z"/><path d="M645.2,1153.79v-3.72h11.15l3.72-3.72v-124.52h-14.87v-3.72c9.29,0,20.44-2.79,29.74-7.43v14.87h1.86c5.2-9.29,17.66-14.87,30.85-14.87,25.65,0,43.49,20.26,43.49,49.25,0,26.76-19.89,49.25-45.72,49.25-9.66,0-18.77-3.16-25.65-8.55h-2.97v45.72l3.72,3.72h29.74v3.72h-65.05Zm87.35-93.3c0-25.46-11.34-44.05-28.62-44.05-16.17,0-27.13,10.97-27.13,27.88v29.55c0,19.51,10.22,29.74,26.39,29.74,18.21,0,29.36-19.7,29.36-43.12Z"/><path d="M868.22,1014.4v3.72h-11.71l-47.02,115.23c-5.39,13.2-13.38,18.58-26.76,19.51l-13.01,.93,3.72-18.58h27.32c2.42,0,3.72-1.3,4.65-3.72l5.2-12.64-40.89-100.73h-13.01v-3.72h111.51Zm-48.32,82.15l30.29-74.71-3.72-3.72h-53.53l-3.72,3.72,28.81,74.71h1.86Z"/><path d="M159.68,1285.74v-3.72h19.51l3.72-3.72v-120.8l-3.72-3.72h-19.51v-3.72h35.31l79.92,102.22h1.86v-94.78l-3.72-3.72h-31.59v-3.72h63.19v3.72h-19.51l-3.72,3.72v128.24h-6.5l-85.49-109.65h-1.86v102.22l3.72,3.72h31.59v3.72h-63.19Z"/><path d="M312.07,1239.84c0-31.41,17.66-50.74,44.98-50.74,24.72,0,40.52,13.94,40.52,39.03l-5.58,5.58h-61.33c-.19,1.3-.19,3.16-.19,3.72,0,23.04,11.89,44.6,32.9,44.6,17.47,0,28.62-16.17,32.15-39.77l3.9,.74c-3.53,25.83-15.8,44.6-40.7,44.6-29.92,0-46.65-18.96-46.65-47.76Zm63.19-9.85l3.72-3.72c0-18.77-8.55-33.45-21.37-33.45s-24.72,15.61-26.76,37.17h44.42Z"/><path d="M452.39,1285.74l-30.67-89.21h-11.15v-3.72h148.68v3.72h-11.15l-31.22,89.21h-9.66l-21.75-64.68h-1.86l-22.12,64.68h-9.11Zm10.04-21.75h1.86l22.86-67.46h-43.12l-3.72,3.72,22.12,63.75Zm55.57,0h1.86l22.49-63.75-3.72-3.72h-42.75l22.12,67.46Z"/><path d="M601.06,1285.74v-3.72h14.87l3.72-3.72v-46.46l-39.03-74.34-3.72-3.72h-14.87v-3.72h133.81v3.72h-14.31l-43.3,78.06v46.46l3.72,3.72h14.87v3.72h-55.76Zm34.01-61.33h1.86l37.73-66.91-3.72-3.72h-66.16l-3.72,3.72,34.01,66.91Z"/><path d="M685.63,1239.84c0-31.41,17.66-50.74,44.98-50.74,24.72,0,40.52,13.94,40.52,39.03l-5.58,5.58h-61.33c-.19,1.3-.19,3.16-.19,3.72,0,23.04,11.89,44.6,32.9,44.6,17.47,0,28.62-16.17,32.15-39.77l3.9,.74c-3.53,25.83-15.8,44.6-40.7,44.6-29.92,0-46.65-18.96-46.65-47.76Zm63.19-9.85l3.72-3.72c0-18.77-8.55-33.45-21.37-33.45s-24.72,15.61-26.76,37.17h44.42Z"/><path d="M791.56,1268.46c0-13.94,10.04-21.56,38.29-29.18l21.19-5.58v-14.87c0-16.73-7.43-26.02-19.51-26.02s-19.51,7.43-19.51,20.44v14.87l-16.73,7.43,.93-18.58c.93-17.84,14.68-27.88,35.68-27.88,22.49,0,35.87,10.78,35.87,29.74v59.47l3.72,3.72h11.15v3.72h-29.74v-16.73h-1.86c-7.43,13.38-15.98,18.58-30.85,18.58-16.91,0-28.62-5.58-28.62-19.14Zm59.47-18.03v-13.01c-30.85,7.06-41.82,15.05-41.82,30.48,0,12.45,5.58,15.98,15.24,15.98,14.5,0,26.58-14.31,26.58-33.45Z"/><path d="M894.7,1285.74v-3.72h11.15l3.72-3.72v-78.06h-14.87v-3.72c9.29,0,20.44-2.79,29.74-7.43v29.74h1.86c5.02-15.43,11.89-27.88,27.88-28.81l14.87-.93-3.72,18.59h-14.87c-14.5,0-24.16,11.34-24.16,29.74v40.89l3.72,3.72h29.74v3.72h-65.05Z"/></g></g></svg>