<?xml version="1.0" encoding="UTF-8"?><svg id="_레이어_1" xmlns="http://www.w3.org/2000/svg" viewBox="0 0 5333.99 3190.36"><defs><style>.cls-1{font-family:PPGrafier-RegularDisplay, 'PP Grafier';font-size:125.64px;}.cls-1,.cls-2{fill:#fff;}.cls-3{letter-spacing:-.03em;}.cls-4{letter-spacing:0em;}.cls-5{letter-spacing:-.11em;}.cls-6{letter-spacing:0em;}.cls-7{fill:none;stroke:#000;stroke-miterlimit:10;stroke-width:2px;}.cls-8{letter-spacing:-.05em;}.cls-9{letter-spacing:0em;}</style></defs><g><polygon class="cls-2" points="301.48 1159.49 1419.59 347.61 2537.69 1159.49 2537.69 1318.16 301.48 1318.16 301.48 1159.49"/><polyline class="cls-7" points="2537.69 1159.49 1419.59 347.61 301.48 1159.49"/></g><rect class="cls-2" x="301.48" y="1318.16" width="2236.21" height="1536.65"/><rect class="cls-2" x="2916.84" y="1318.16" width="2236.21" height="1536.65"/><g><polygon class="cls-2" points="2916.84 1318.16 4034.94 2086.49 2916.84 2854.82 2916.84 1318.16"/><line class="cls-7" x1="2916.84" y1="1318.16" x2="4034.94" y2="2086.49"/></g><g><polygon class="cls-2" points="5153.04 1318.16 4034.94 2086.49 5153.04 2854.82 5153.04 1318.16"/><line class="cls-7" x1="5153.04" y1="1318.16" x2="4034.94" y2="2086.49"/></g><g><path d="M1477.96,1295.25c432.44,157.09,428.75,821.38,428.75,821.38h0c71.37,0,129.22,57.86,129.22,129.22h0c0,72.08-34.81,116.3-93.47,158.2l-74.04,52.89v125.77h-767.83c14.31-50.13,26.76-90.9,91.18-120.51l-218.28-510.56c-56.47-132.08-57.47-281.32-2.77-414.15l45.53-110.57c45.35-110.14,52.66-232.27,20.78-347.03h0s135.52-153.15,135.52-291.76-85.86-204.77-85.86-326.22c0-112.01,53.35-191.9,108.68-239.36,29.58-25.38,75.3-4.47,75.3,34.51V788.11s4.06,0,4.06,0V257.04c0-38.98,45.72-59.9,75.3-34.51,55.33,47.47,108.68,127.36,108.68,239.36,0,130.6-85.86,183.59-85.86,326.22,0,138.61,135.52,291.76,135.52,291.76l-49.2,177.09,18.79,38.29h0Z"/><text class="cls-1" transform="translate(1323.59 2396.01)"><tspan x="0" y="0">H</tspan><tspan class="cls-9" x="110.56" y="0">a</tspan><tspan x="180.92" y="0">p</tspan><tspan class="cls-3" x="261.33" y="0">p</tspan><tspan class="cls-6" x="337.97" y="0">y</tspan><tspan class="cls-8" x="-70.04" y="120.61">N</tspan><tspan x="32.35" y="120.61">ew</tspan><tspan class="cls-5" x="206.99" y="120.61">Y</tspan><tspan class="cls-4" x="284.89" y="120.61">ear</tspan></text></g><g><path class="cls-2" d="M3912.4,1947.95l-995.56,906.87h2236.21l-995.56-906.87c-69.45-63.26-175.64-63.26-245.08,0Z"/><path class="cls-7" d="M2916.84,2854.82l995.34-906.67c69.57-63.38,175.95-63.38,245.53,0l995.34,906.67"/></g><g><polygon class="cls-2" points="5153.04 1476.84 4034.94 2288.71 2916.84 1476.84 2916.84 1318.16 5153.04 1318.16 5153.04 1476.84"/><polyline class="cls-7" points="2916.84 1476.84 4034.94 2288.71 5153.04 1476.84"/></g><g><polygon class="cls-2" points="301.48 1318.16 1419.59 2086.49 301.48 2854.82 301.48 1318.16"/><line class="cls-7" x1="301.48" y1="1318.16" x2="1419.59" y2="2086.49"/></g><g><polygon class="cls-2" points="2537.69 1318.16 1419.59 2086.49 2537.69 2854.82 2537.69 1318.16"/><line class="cls-7" x1="2537.69" y1="1318.16" x2="1419.59" y2="2086.49"/></g><g><path class="cls-2" d="M1297.04,1947.95l-995.56,906.87H2537.69l-995.56-906.87c-69.45-63.26-175.64-63.26-245.08,0Z"/><path class="cls-7" d="M301.48,2854.82l995.34-906.67c69.57-63.38,175.95-63.38,245.53,0l995.34,906.67"/></g><g><g><path d="M3949.75,1913.51c0,36.99-3.26,67.72-11.7,91.12l-11.42-8.16c7.89-21.49,10.34-45.97,10.34-82.96v-22.58h12.78v22.58Zm14.14,110.97v-156.12h-35.36v-12.78h82.96v12.78h-34v156.12h-13.6Zm-28.29-204.53v-11.97h69.08v11.97h-69.08Zm55.76,169.99v-98.46h12.78v98.46h-12.78Zm26.93-171.08v-11.97h116.96v11.97h-116.96Zm98.73,202.63v-11.97h-84.86v14.96h-13.33v-110.7h111.51v107.71h-13.33Zm-90.84-128.11v-54.67h97.1v54.67h-97.1Zm5.98,61.2h34.81v-29.1h-34.81v29.1Zm0,42.97h34.81v-31.28h-34.81v31.28Zm7.62-115.59h69.9v-31.55h-69.9v31.55Zm40.25,43.52v29.1h36.99v-29.1h-36.99Zm0,72.08h36.99v-31.28h-36.99v31.28Z"/><path d="M4036.8,2082.12c-91.12,0-165.25-74.13-165.25-165.25s74.13-165.25,165.25-165.25,165.25,74.13,165.25,165.25-74.13,165.25-165.25,165.25Zm0-324.5c-87.81,0-159.25,71.44-159.25,159.25s71.44,159.25,159.25,159.25,159.25-71.44,159.25-159.25-71.44-159.25-159.25-159.25Z"/></g><g><path d="M3950.37,2090.55c0-6.39-5.19-9.66-15.65-9.66-11.9,0-19.49,4.07-19.49,13.34h-11.02c.8-14.14,12.7-20.92,30.75-20.92,16.61,0,26.44,5.67,26.44,16.69,0,22.84-43.13,17.97-46.24,32.98h45.84v8.39h-58.38v-4.47c0-25.24,47.76-19.17,47.76-36.34Z"/><path d="M3971.22,2103.01c0-17.73,11.18-29.79,30.83-29.79s30.91,12.14,30.91,29.79-11.26,29.95-30.91,29.95-30.83-12.22-30.83-29.95Zm30.83,20.76c12.22,0,19.57-7.75,19.57-20.76s-7.35-20.61-19.57-20.61-19.49,7.59-19.49,20.61,7.35,20.76,19.49,20.76Z"/><path d="M4089.43,2090.55c0-6.39-5.19-9.66-15.65-9.66-11.9,0-19.49,4.07-19.49,13.34h-11.02c.8-14.14,12.7-20.92,30.75-20.92,16.61,0,26.44,5.67,26.44,16.69,0,22.84-43.13,17.97-46.24,32.98h45.84v8.39h-58.38v-4.47c0-25.24,47.76-19.17,47.76-36.34Z"/><path d="M4111.48,2112.27h10.7c0,9.1,8.23,12.7,20.6,12.7,11.26,0,17.73-3.04,17.73-10.38,0-6.79-5.27-9.1-16.21-9.1h-7.11v-6.47h6.79c10.54-.08,15.73-2.56,15.73-8.95s-5.51-9.18-17.33-9.18c-13.58,0-20.21,3.99-20.21,12.94h-10.3c.72-13.58,11.02-20.53,30.91-20.53s27.87,5.67,27.87,15.81c0,6.95-3.51,11.02-11.1,13.02,8.07,1.92,11.9,6.23,11.9,13.42,0,11.02-9.18,17.41-28.99,17.41s-30.35-6.87-30.99-20.69Z"/></g><g><path d="M3735.73,1582.99v-3.72h14.87l3.72-3.72v-120.8l-3.72-3.72h-14.87v-3.72h146.82v3.72h-14.87l-3.72,3.72v120.8l3.72,3.72h14.87v3.72h-146.82Zm37.17-72.48h72.48v-55.76l-3.72-3.72h-65.05l-3.72,3.72v55.76Zm3.72,68.77h65.05l3.72-3.72v-61.33h-72.48v61.33l3.72,3.72Z"/><path d="M3900.2,1565.71c0-13.94,10.04-21.56,38.29-29.18l21.19-5.58v-14.87c0-16.73-7.43-26.02-19.51-26.02s-19.51,7.43-19.51,20.44v14.87l-16.73,7.43,.93-18.58c.93-17.84,14.68-27.88,35.68-27.88,22.49,0,35.87,10.78,35.87,29.74v59.47l3.72,3.72h11.15v3.72h-29.74v-16.73h-1.86c-7.43,13.38-15.98,18.58-30.85,18.58-16.91,0-28.62-5.58-28.62-19.14Zm59.47-18.03v-13.01c-30.85,7.06-41.82,15.05-41.82,30.48,0,12.45,5.58,15.98,15.24,15.98,14.5,0,26.58-14.31,26.58-33.45Z"/><path d="M3998.7,1629.46v-3.72h11.15l3.72-3.72v-124.52h-14.87v-3.72c9.29,0,20.44-2.79,29.74-7.43v14.87h1.86c5.2-9.29,17.66-14.87,30.85-14.87,25.65,0,43.49,20.26,43.49,49.25,0,26.76-19.89,49.25-45.72,49.25-9.67,0-18.77-3.16-25.65-8.55h-2.97v45.72l3.72,3.72h29.74v3.72h-65.05Zm87.35-93.3c0-25.46-11.34-44.05-28.62-44.05-16.17,0-27.13,10.97-27.13,27.88v29.55c0,19.51,10.22,29.74,26.39,29.74,18.21,0,29.36-19.7,29.36-43.12Z"/><path d="M4117.64,1629.46v-3.72h11.15l3.72-3.72v-124.52h-14.87v-3.72c9.29,0,20.44-2.79,29.74-7.43v14.87h1.86c5.2-9.29,17.66-14.87,30.85-14.87,25.65,0,43.49,20.26,43.49,49.25,0,26.76-19.89,49.25-45.72,49.25-9.66,0-18.77-3.16-25.65-8.55h-2.97v45.72l3.72,3.72h29.74v3.72h-65.05Zm87.35-93.3c0-25.46-11.34-44.05-28.62-44.05-16.17,0-27.13,10.97-27.13,27.88v29.55c0,19.51,10.22,29.74,26.39,29.74,18.21,0,29.36-19.7,29.36-43.12Z"/><path d="M4340.66,1490.07v3.72h-11.71l-47.02,115.23c-5.39,13.2-13.38,18.58-26.76,19.51l-13.01,.93,3.72-18.58h27.32c2.42,0,3.72-1.3,4.65-3.72l5.2-12.64-40.89-100.73h-13.01v-3.72h111.51Zm-48.32,82.15l30.29-74.71-3.72-3.72h-53.53l-3.72,3.72,28.81,74.71h1.86Z"/><path d="M3632.12,1761.41v-3.72h19.51l3.72-3.72v-120.8l-3.72-3.72h-19.51v-3.72h35.31l79.92,102.22h1.86v-94.78l-3.72-3.72h-31.59v-3.72h63.19v3.72h-19.51l-3.72,3.72v128.24h-6.5l-85.49-109.65h-1.86v102.22l3.72,3.72h31.59v3.72h-63.19Z"/><path d="M3784.51,1715.5c0-31.41,17.66-50.74,44.98-50.74,24.72,0,40.52,13.94,40.52,39.03l-5.58,5.58h-61.33c-.19,1.3-.19,3.16-.19,3.72,0,23.05,11.89,44.6,32.9,44.6,17.47,0,28.62-16.17,32.15-39.77l3.9,.74c-3.53,25.83-15.8,44.6-40.7,44.6-29.92,0-46.65-18.96-46.65-47.76Zm63.19-9.85l3.72-3.72c0-18.77-8.55-33.45-21.37-33.45s-24.72,15.61-26.76,37.17h44.42Z"/><path d="M3924.83,1761.41l-30.67-89.21h-11.15v-3.72h148.68v3.72h-11.15l-31.22,89.21h-9.66l-21.75-64.68h-1.86l-22.12,64.68h-9.11Zm10.04-21.74h1.86l22.86-67.46h-43.12l-3.72,3.72,22.12,63.75Zm55.57,0h1.86l22.49-63.75-3.72-3.72h-42.75l22.12,67.46Z"/><path d="M4073.5,1761.41v-3.72h14.87l3.72-3.72v-46.46l-39.03-74.34-3.72-3.72h-14.87v-3.72h133.81v3.72h-14.31l-43.3,78.06v46.46l3.72,3.72h14.87v3.72h-55.76Zm34.01-61.33h1.86l37.73-66.91-3.72-3.72h-66.16l-3.72,3.72,34.01,66.91Z"/><path d="M4158.07,1715.5c0-31.41,17.66-50.74,44.98-50.74,24.72,0,40.52,13.94,40.52,39.03l-5.58,5.58h-61.33c-.19,1.3-.19,3.16-.19,3.72,0,23.05,11.89,44.6,32.9,44.6,17.47,0,28.62-16.17,32.15-39.77l3.9,.74c-3.53,25.83-15.8,44.6-40.7,44.6-29.92,0-46.65-18.96-46.65-47.76Zm63.19-9.85l3.72-3.72c0-18.77-8.55-33.45-21.37-33.45s-24.72,15.61-26.76,37.17h44.42Z"/><path d="M4264,1744.12c0-13.94,10.04-21.56,38.29-29.18l21.19-5.58v-14.87c0-16.73-7.43-26.02-19.51-26.02s-19.51,7.43-19.51,20.44v14.87l-16.73,7.43,.93-18.58c.93-17.84,14.68-27.88,35.68-27.88,22.49,0,35.87,10.78,35.87,29.74v59.47l3.72,3.72h11.15v3.72h-29.74v-16.73h-1.86c-7.43,13.38-15.98,18.58-30.85,18.58-16.91,0-28.62-5.58-28.62-19.14Zm59.47-18.03v-13.01c-30.85,7.06-41.82,15.05-41.82,30.48,0,12.45,5.58,15.98,15.24,15.98,14.5,0,26.58-14.31,26.58-33.45Z"/><path d="M4367.14,1761.41v-3.72h11.15l3.72-3.72v-78.06h-14.87v-3.72c9.29,0,20.44-2.79,29.74-7.43v29.74h1.86c5.02-15.43,11.89-27.88,27.88-28.81l14.87-.93-3.72,18.59h-14.87c-14.5,0-24.16,11.34-24.16,29.74v40.89l3.72,3.72h29.74v3.72h-65.05Z"/></g></g></svg>