<?xml version="1.0" encoding="utf-8"?>
<svg id="_레이어_1" viewBox="1487.987 787.463 2386.258 1656.798" xmlns="http://www.w3.org/2000/svg">
  <defs>
    <style>.cls-1{font-family:PPGrafier-RegularDisplay, 'PP Grafier';font-size:125.64px;}.cls-1,.cls-2{fill:#fff;}.cls-3{letter-spacing:-.03em;}.cls-4{letter-spacing:0em;}.cls-5{letter-spacing:-.11em;}.cls-6{letter-spacing:0em;}.cls-7{fill:none;stroke:#000;stroke-miterlimit:10;stroke-width:2px;}.cls-8{letter-spacing:-.05em;}.cls-9{letter-spacing:0em;}</style>
  </defs>
  <rect class="cls-2" x="1563.998" y="840.337" width="2236.21" height="1536.65"/>
  <g transform="matrix(1, 0, 0, 1, -1352.842407, -477.823334)">
    <polygon class="cls-2" points="2916.84 1318.16 4034.94 2086.49 2916.84 2854.82 2916.84 1318.16"/>
    <line class="cls-7" x1="2916.84" y1="1318.16" x2="4034.94" y2="2086.49"/>
  </g>
  <g transform="matrix(1, 0, 0, 1, -1352.842407, -477.823334)">
    <polygon class="cls-2" points="5153.04 1318.16 4034.94 2086.49 5153.04 2854.82 5153.04 1318.16"/>
    <line class="cls-7" x1="5153.04" y1="1318.16" x2="4034.94" y2="2086.49"/>
  </g>
  <g transform="matrix(1, 0, 0, 1, -1352.842407, -477.823334)">
    <path class="cls-2" d="M3912.4,1947.95l-995.56,906.87h2236.21l-995.56-906.87c-69.45-63.26-175.64-63.26-245.08,0Z"/>
    <path class="cls-7" d="M2916.84,2854.82l995.34-906.67c69.57-63.38,175.95-63.38,245.53,0l995.34,906.67"/>
  </g>
  <g transform="matrix(1, 0, 0, 1, -1352.842407, -477.823334)">
    <polygon class="cls-2" points="5153.04 1476.84 4034.94 2288.71 2916.84 1476.84 2916.84 1318.16 5153.04 1318.16 5153.04 1476.84"/>
    <polyline class="cls-7" points="2916.84 1476.84 4034.94 2288.71 5153.04 1476.84"/>
  </g>
</svg>