<?xml version="1.0" encoding="UTF-8"?><svg xmlns="http://www.w3.org/2000/svg" viewBox="0 0 2449.84 2940.23"><defs><style>.cls-1{fill:#ff5a28;}.cls-2{fill:#fff;stroke:#000;stroke-miterlimit:10;stroke-width:2px;}</style></defs><g id="_레이어_1"><rect class="cls-2" x="91.24" y="1309.67" width="2236.21" height="1536.65"/></g><g id="_레이어_2"><g><polygon class="cls-2" points="91.24 1309.67 1209.34 2078 91.24 2846.32 91.24 1309.67"/><polygon class="cls-2" points="2327.44 1309.67 1209.34 2078 2327.44 2846.32 2327.44 1309.67"/><path class="cls-2" d="M1086.8,1939.46L91.24,2846.32H2327.44l-995.56-906.87c-69.45-63.26-175.64-63.26-245.08,0Z"/></g></g><g id="_레이어_3"><polygon class="cls-2" points="2327.44 1468.34 1209.34 2280.22 91.24 1468.34 91.24 1309.67 2327.44 1309.67 2327.44 1468.34"/><path class="cls-1" d="M1239.23,1923.28h0c4.61-6.46,14.59-5.09,17.29,2.38h0c8.57,23.71,37.93,31.93,57.57,16.13h0c6.19-4.98,15.42-.97,16,6.95h0c1.86,25.14,27.91,40.98,51.08,31.06h0c7.3-3.12,15.11,3.23,13.54,11.01h0c-4.99,24.71,15.82,46.99,40.81,43.69h0c7.87-1.04,13.68,7.19,10.06,14.26h0c-11.48,22.45,2.55,49.52,27.51,53.08h0c7.86,1.12,11.23,10.61,5.84,16.44h0c-17.11,18.52-10.9,48.37,12.16,58.54h0c7.27,3.2,7.95,13.25,1.19,17.41h0c-21.47,13.22-23.55,43.63-4.08,59.65h0c6.13,5.05,4.08,14.9-3.55,17.08h0c-24.24,6.93-34.45,35.66-20.02,56.34h0c4.54,6.51-.09,15.45-8.03,15.49h0c-25.21,.14-42.79,25.05-34.48,48.84h0c2.62,7.5-4.25,14.85-11.91,12.75h0c-24.31-6.67-47.96,12.57-46.38,37.73h0c.5,7.93-8.1,13.16-14.91,9.07h0c-21.61-12.98-49.57-.83-54.84,23.82h0c-1.66,7.77-11.35,10.48-16.8,4.71h0c-17.31-18.33-47.51-14.18-59.23,8.14h0c-3.69,7.03-13.76,7.03-17.45,0h0c-11.72-22.32-41.92-26.47-59.23-8.14h0c-5.45,5.77-15.14,3.06-16.8-4.71h0c-5.26-24.65-33.23-36.8-54.84-23.82h0c-6.81,4.09-15.41-1.14-14.91-9.07h0c1.58-25.16-22.07-44.4-46.38-37.73h0c-7.66,2.1-14.53-5.26-11.91-12.75h0c8.31-23.8-9.27-48.71-34.48-48.84h0c-7.94-.04-12.57-8.98-8.03-15.49h0c14.42-20.67,4.21-49.4-20.02-56.34h0c-7.63-2.18-9.68-12.04-3.55-17.08h0c19.47-16.02,17.39-46.43-4.08-59.65h0c-6.76-4.16-6.08-14.21,1.19-17.41h0c23.07-10.17,29.27-40.02,12.16-58.54h0c-5.39-5.83-2.02-15.32,5.84-16.44h0c24.95-3.57,38.98-30.64,27.51-53.08h0c-3.61-7.07,2.19-15.29,10.06-14.26h0c24.99,3.3,45.8-18.99,40.81-43.69h0c-1.57-7.78,6.23-14.14,13.54-11.01h0c23.18,9.92,49.23-5.92,51.08-31.06h0c.59-7.92,9.82-11.93,16-6.95h0c19.64,15.8,49,7.58,57.57-16.13h0c2.7-7.47,12.67-8.84,17.29-2.38h0c14.65,20.52,45.14,20.52,59.79,0Z"/><g><path d="M1130.11,2172.62c0,34.1-3.01,62.42-10.78,83.99l-10.53-7.52c7.27-19.8,9.53-42.37,9.53-76.46v-20.81h11.78v20.81Zm13.04,102.29v-143.9h-32.59v-11.78h76.46v11.78h-31.34v143.9h-12.54Zm-26.07-188.53v-11.03h63.68v11.03h-63.68Zm51.39,156.69v-90.75h11.78v90.75h-11.78Zm24.82-157.69v-11.03h107.8v11.03h-107.8Zm91,186.77v-11.03h-78.22v13.79h-12.28v-102.04h102.79v99.28h-12.28Zm-83.73-118.08v-50.39h89.5v50.39h-89.5Zm5.52,56.41h32.09v-26.82h-32.09v26.82Zm0,39.61h32.09v-28.83h-32.09v28.83Zm7.02-106.55h64.43v-29.08h-64.43v29.08Zm37.1,40.11v26.82h34.1v-26.82h-34.1Zm0,66.44h34.1v-28.83h-34.1v28.83Z"/><path d="M1210.34,2328.03c-83.99,0-152.32-68.33-152.32-152.32s68.33-152.32,152.32-152.32,152.32,68.33,152.32,152.32-68.33,152.32-152.32,152.32Zm0-299.1c-80.94,0-146.79,65.85-146.79,146.79s65.85,146.79,146.79,146.79,146.79-65.85,146.79-146.79-65.85-146.79-146.79-146.79Z"/></g><g><path d="M1118.33,2321.14c-12.06,0-21.8,2.28-29.75,6.98l.36,8.64c7.31-4.61,17.35-7.04,29.12-7.04,9.71,0,16.49,2.75,16.49,6.69,0,2.74-1.77,4.23-20.55,9.02h0c-24.35,6.16-27.71,15.3-27.71,24.26v1.53h59.39v-8.44h-47.03l.33-.84c1.52-3.84,12.75-7.2,21.9-9.35,20.56-4.79,24.17-9.05,24.17-16.25,0-9.23-10.49-15.2-26.73-15.2Z"/><path d="M1201.16,2327.24c-5.46-4.85-13.13-7.41-22.19-7.41s-16.73,2.56-22.19,7.41c-5.4,4.8-8.26,11.5-8.26,19.38s2.86,14.58,8.26,19.38c5.46,4.85,13.13,7.41,22.19,7.41s16.73-2.56,22.19-7.41c5.4-4.8,8.26-11.5,8.26-19.38s-2.86-14.58-8.26-19.38Zm-22.19,37.67c-12.75,0-21.32-7.35-21.32-18.29s8.37-18.29,21.32-18.29,21.32,7.35,21.32,18.29-8.77,18.29-21.32,18.29Z"/><path d="M1241.6,2321.14c-12.06,0-21.8,2.28-29.75,6.98l.36,8.64c7.31-4.61,17.35-7.04,29.12-7.04,9.71,0,16.49,2.75,16.49,6.69,0,2.74-1.77,4.23-20.55,9.02h0c-24.35,6.16-27.71,15.3-27.71,24.26v1.53h59.39v-8.44h-47.03l.33-.84c1.52-3.84,12.75-7.2,21.9-9.35,20.56-4.79,24.17-9.05,24.17-16.25,0-9.23-10.49-15.2-26.73-15.2Z"/><path d="M1272.96,2356.97l-.3,8.77c7.69,4.13,17.6,6.3,28.72,6.3,18.55,0,31.01-6.22,31.01-15.47,0-4.84-1.28-8.51-7.53-10.67l-1.35-.47,1.27-.65c5.17-2.65,5.6-6.46,5.6-9.81,0-8.09-11.79-13.75-28.66-13.75-10.69,0-19.49,2.05-27.68,6.44l.24,8.68c7.2-4.57,15.86-6.61,27.86-6.61,10.5,0,18.42,3.02,18.42,7.03,0,1.9-1.46,5.1-11.24,5.1h-19.55v7.96h19.34c11.71,0,13.45,3.58,13.45,5.72,0,4.93-7.75,8-20.22,8s-22.3-2.21-29.39-6.56Z"/></g></g><g id="opened" style="display:none"><g><path class="cls-1" d="M1239.23,695.71h0c4.61,6.46,14.59,5.09,17.29-2.38h0c8.57-23.71,37.93-31.93,57.57-16.13h0c6.19,4.98,15.42,.97,16-6.95h0c1.86-25.14,27.91-40.98,51.08-31.06h0c7.3,3.12,15.11-3.23,13.54-11.01h0c-4.99-24.71,15.82-46.99,40.81-43.69h0c7.87,1.04,13.68-7.19,10.06-14.26h0c-11.48-22.45,2.55-49.52,27.51-53.08h0c7.86-1.12,11.23-10.61,5.84-16.44h0c-17.11-18.52-10.9-48.37,12.16-58.54h0c7.27-3.2,7.95-13.25,1.19-17.41h0c-21.47-13.22-23.55-43.63-4.08-59.65h0c6.13-5.05,4.08-14.9-3.55-17.08h0c-24.24-6.93-34.45-35.66-20.02-56.34h0c4.54-6.51-.09-15.45-8.03-15.49h0c-25.21-.14-42.79-25.05-34.48-48.84h0c2.62-7.5-4.25-14.85-11.91-12.75h0c-24.31,6.67-47.96-12.57-46.38-37.73h0c.5-7.93-8.1-13.16-14.91-9.07h0c-21.61,12.98-49.57,.83-54.84-23.82h0c-1.66-7.77-11.35-10.48-16.8-4.71h0c-17.31,18.33-47.51,14.18-59.23-8.14h0c-3.69-7.03-13.76-7.03-17.45,0h0c-11.72,22.32-41.92,26.47-59.23,8.14h0c-5.45-5.77-15.14-3.06-16.8,4.71h0c-5.26,24.65-33.23,36.8-54.84,23.82h0c-6.81-4.09-15.41,1.14-14.91,9.07h0c1.58,25.16-22.07,44.4-46.38,37.73h0c-7.66-2.1-14.53,5.26-11.91,12.75h0c8.31,23.8-9.27,48.71-34.48,48.84h0c-7.94,.04-12.57,8.98-8.03,15.49h0c14.42,20.67,4.21,49.4-20.02,56.34h0c-7.63,2.18-9.68,12.04-3.55,17.08h0c19.47,16.02,17.39,46.43-4.08,59.65h0c-6.76,4.16-6.08,14.21,1.19,17.41h0c23.07,10.17,29.27,40.02,12.16,58.54h0c-5.39,5.83-2.02,15.32,5.84,16.44h0c24.95,3.57,38.98,30.64,27.51,53.08h0c-3.61,7.07,2.19,15.29,10.06,14.26h0c24.99-3.3,45.8,18.99,40.81,43.69h0c-1.57,7.78,6.23,14.14,13.54,11.01h0c23.18-9.92,49.23,5.92,51.08,31.06h0c.59,7.92,9.82,11.93,16,6.95h0c19.64-15.8,49-7.58,57.57,16.13h0c2.7,7.47,12.67,8.84,17.29,2.38h0c14.65-20.52,45.14-20.52,59.79,0Z"/><rect class="cls-2" x="91.24" y="1309.67" width="2236.21" height="1536.65"/><g><polygon class="cls-2" points="91.24 1309.67 1209.34 2078 91.24 2846.32 91.24 1309.67"/><polygon class="cls-2" points="2327.44 1309.67 1209.34 2078 2327.44 2846.32 2327.44 1309.67"/><path class="cls-2" d="M1086.8,1939.46L91.24,2846.32H2327.44l-995.56-906.87c-69.45-63.26-175.64-63.26-245.08,0Z"/></g><polygon class="cls-2" points="2327.44 1150.65 1209.34 338.78 91.24 1150.65 91.24 1309.32 2327.44 1309.32 2327.44 1150.65"/></g></g></svg>